<?xml version="1.0" encoding="UTF-8" standalone="no"?>
<svg width="24px" height="32px" viewBox="0 0 24 32" version="1.1" xmlns="http://www.w3.org/2000/svg" xmlns:xlink="http://www.w3.org/1999/xlink">
    <!-- Generator: Sketch 3.7 (28169) - http://www.bohemiancoding.com/sketch -->
    <title>address-book</title>
    <desc>Created with Sketch.</desc>
    <defs>
        <path d="M-4.98950918e-17,2.99610022 C-2.23387935e-17,1.34139976 1.34177063,0 2.99109042,0 L21.0089096,0 C22.6608432,0 24,1.33425951 24,2.99610022 L24,29.0038998 C24,30.6586002 22.6582294,32 21.0089096,32 L2.99109042,32 C1.33915679,32 -5.10687167e-16,30.6657405 -4.8301196e-16,29.0038998 L-4.98950918e-17,2.99610022 Z" id="path-1"></path>
        <mask id="mask-2" maskContentUnits="userSpaceOnUse" maskUnits="objectBoundingBox" x="0" y="0" width="24" height="32" fill="white">
            <use xlink:href="#path-1"></use>
        </mask>
    </defs>
    <g id="Page-1" stroke="none" stroke-width="1" fill="none" fill-rule="evenodd">
        <g id="Artboard-13" transform="translate(-132.000000, -54.000000)">
            <g id="address-book" transform="translate(132.000000, 54.000000)">
                <use id="Page" stroke="#131C26" mask="url(#mask-2)" stroke-width="4" fill="#FFFFFF" xlink:href="#path-1"></use>
                <path d="M17.5,23 L6.5,23 C6.25,23 6.00006585,22.75 6,22.5 C5.99977451,19.9319307 8.5,17 12,17 C15.5,17 18,20 18,22.5 C18,22.75 17.75,23 17.5,23 Z" id="Body" fill="#131C26"></path>
                <circle id="Head" fill="#131C26" cx="12" cy="12" r="4"></circle>
            </g>
        </g>
    </g>
</svg>