<?xml version="1.0" encoding="utf-8"?>
<!-- Generator: Adobe Illustrator 19.2.1, SVG Export Plug-In . SVG Version: 6.00 Build 0)  -->
<!DOCTYPE svg PUBLIC "-//W3C//DTD SVG 1.1//EN" "http://www.w3.org/Graphics/SVG/1.1/DTD/svg11.dtd">
<svg version="1.1" id="Layer_1" xmlns="http://www.w3.org/2000/svg" xmlns:xlink="http://www.w3.org/1999/xlink" x="0px" y="0px"
	 viewBox="0 0 100 100" style="enable-background:new 0 0 100 100; fill:#00a9d2;" xml:space="preserve" >
<path d="M85.7,2.1c6.7,0,12.2,5.5,12.2,12.2v83.6H14.3c-6.7,0-12.2-5.5-12.2-12.2V2.1H85.7 M85.7,0H0v85.7C0,93.6,6.4,100,14.3,100
	H100V14.3C100,6.4,93.6,0,85.7,0z"/>
<path d="M46.8,32.9c0,0-0.5-0.1-1.3-0.2c-0.8-0.1-2-0.4-3.5-0.6c-1.5-0.2-3.1-0.4-5-0.6c-1.5-0.1-3.1-0.2-4.7-0.2
	c0-1.1-0.1-2.2-0.2-3.3c0-0.8-0.1-1.5-0.2-2.2c-0.1-0.7-0.1-1.4-0.2-2c-0.2-1.2-0.4-2.2-0.5-2.9c0-0.1,0-0.2,0-0.2c0,0,0-0.1,0-0.1
	c0,0,0,0,0,0l0-0.1c0-0.1,0.1,0-0.1-0.4c-0.1,0,0.1,0-0.3-0.2c-0.2-0.1-0.5,0-0.6,0.1c-0.1,0.1-0.1,0.2-0.1,0.2l0,0.1l0,0.1l0,0.1
	c0,0.1,0,0.2-0.1,0.3c-0.2,0.7-0.4,1.8-0.7,3c-0.1,0.6-0.2,1.3-0.3,2c-0.1,0.7-0.2,1.4-0.2,2.2c-0.1,1.1-0.1,2.2-0.2,3.4
	c-0.1,0-0.2,0-0.3,0c-1,0.1-1.9,0.1-2.8,0.2c-1.8,0.2-3.5,0.5-5,0.7c-1.5,0.3-2.6,0.6-3.5,0.8c-0.8,0.3-1.3,0.5-1.3,0.5
	c-0.1,0.1-0.3,0.2-0.3,0.4c-0.1,0.3,0.1,0.6,0.4,0.6c0,0,0.5,0.1,1.4,0.2c0.4,0,1,0.1,1.5,0.1c0.6,0,1.3,0.1,2,0.1
	c0.7,0,1.5,0.1,2.3,0.1c0.8,0,1.7,0.1,2.6,0.1c0.9,0,1.9,0.1,2.9,0.1c0,2.3,0.2,4.5,0.3,6.2c0.1,1.2,0.2,2.2,0.3,3
	c0,0.4,0.1,0.6,0.2,0.8c0.1,0.2,0.1,0.3,0.1,0.3c0.1,0.3,0.3,0.6,0.6,0.7c0.6,0.3,1.3,0.1,1.6-0.5l0.2-0.4c0,0,0-0.1,0.1-0.3
	c0-0.2,0.1-0.5,0.1-0.8c0.1-0.7,0.1-1.7,0.2-3c0.1-1.7,0.2-3.8,0.3-6.1c1.5,0,3,0,4.4,0c1.8,0,3.5-0.1,4.9-0.1
	c1.4,0,2.7-0.1,3.5-0.2c0.8,0,1.3-0.1,1.3-0.1c0.6,0,1.1-0.4,1.2-1C47.9,33.6,47.4,33,46.8,32.9z M30.1,20.5
	C30.1,20.6,30.1,20.6,30.1,20.5c0,0.1,0.1,0.1,0.1,0.2c0,0,0,0,0,0C30,20.5,30.1,20.5,30.1,20.5z"/>
<path d="M39.1,68.7c-0.8-0.8-1.7-1.8-2.8-2.8c-0.9-0.8-1.8-1.7-2.8-2.6c0.6-0.5,1.1-0.9,1.7-1.3c0.6-0.4,1.1-0.9,1.7-1.3
	c0.5-0.4,1-0.8,1.5-1.1c0.5-0.4,0.9-0.7,1.3-1c0.4-0.3,0.7-0.7,0.9-0.9c0.5-0.6,0.8-0.9,0.8-0.9c0.1-0.1,0.1-0.2,0.1-0.2
	c0-0.2-0.2-0.3-0.3-0.2c0,0-0.4,0.1-1.1,0.2c-0.4,0.1-0.8,0.1-1.3,0.3c-0.4,0.2-0.9,0.4-1.5,0.7c-0.5,0.3-1.1,0.6-1.7,1
	c-0.6,0.3-1.2,0.8-1.9,1.2c-0.6,0.4-1.3,0.8-2,1.3c-0.1,0.1-0.3,0.2-0.4,0.3c-0.6-0.5-1.3-1-1.9-1.5c-1.1-1-2.3-1.6-3.2-2.3
	c-1-0.6-1.8-1.1-2.4-1.4c-0.3-0.1-0.5-0.3-0.8-0.2c-0.1,0-0.2,0-0.3,0.1c-0.1,0.1-0.2,0.1-0.2,0.1c-0.2,0.2-0.4,0.4-0.6,0.7
	c0,0-0.1,0.1-0.1,0.2c0,0.1,0,0.2,0,0.3c0,0.2,0.2,0.4,0.4,0.7c0.4,0.5,1.1,1.2,2,1.9c0.4,0.4,0.9,0.8,1.4,1.2
	c0.5,0.4,1,0.9,1.5,1.4c0.4,0.3,0.8,0.7,1.1,1c-0.8,0.7-1.6,1.3-2.2,2c-0.5,0.5-1.1,1-1.6,1.6c-0.5,0.5-0.9,1-1.3,1.5
	c-0.8,0.9-1.4,1.8-1.8,2.4c-0.4,0.6-0.7,0.9-0.7,0.9c-0.4,0.6-0.3,1.3,0.2,1.8c0.6,0.5,1.4,0.5,1.9-0.1l0.1-0.1c0,0,0.3-0.3,0.7-0.8
	c0.2-0.3,0.5-0.6,0.8-0.9c0.3-0.4,0.7-0.8,1.1-1.2c0.8-0.9,1.7-1.8,2.8-2.9c0.7-0.7,1.5-1.4,2.4-2.2c1,1,1.9,2,2.8,2.9
	c1,1,1.8,2,2.6,2.8c1.5,1.7,2.6,2.8,2.6,2.8l0,0c0.8,0.8,2.1,0.9,2.9,0.1c0.9-0.8,0.9-2.1,0.1-3C41.7,71.5,40.7,70.3,39.1,68.7z"/>
<path d="M57.5,34.6c0,0,0.4,0.2,1,0.4c0.7,0.2,1.6,0.4,2.8,0.6c1.1,0.2,2.5,0.4,3.9,0.5c1.4,0.1,2.9,0.3,4.5,0.3
	c3,0.1,6.1-0.2,8.4-0.4c1.1-0.1,2.1-0.3,2.8-0.4c0.7-0.1,1-0.1,1-0.1c0.5-0.1,1-0.5,1.1-1.1c0.1-0.7-0.4-1.3-1.1-1.4
	c0,0-0.4-0.1-1-0.1c-0.7-0.1-1.6-0.3-2.8-0.4c-2.3-0.2-5.3-0.6-8.4-0.5c-1.5,0-3,0.1-4.5,0.2c-1.4,0.1-2.8,0.3-3.9,0.5
	c-1.1,0.2-2.1,0.4-2.8,0.5c-0.7,0.2-1,0.4-1,0.4c-0.1,0.1-0.2,0.1-0.3,0.3C57.1,34.2,57.2,34.5,57.5,34.6z"/>
<path d="M57.3,61.4c0,0,0.4,0,1.1,0.1c0.7,0.1,1.7,0.2,2.8,0.3c0.6,0,1.2,0,1.9,0.1c0.7,0.1,1.4,0.1,2.1,0.2
	c1.5,0.1,3.1,0.1,4.7,0.1c1.6,0,3.2-0.1,4.7-0.2c1.5-0.1,2.9-0.3,4.1-0.4c1.2-0.2,2.2-0.3,2.9-0.5c0.7-0.2,1.1-0.3,1.1-0.3
	c0.1-0.1,0.2-0.2,0.3-0.3c0.1-0.3,0-0.6-0.3-0.7c0,0-0.4-0.2-1.1-0.4c-0.7-0.2-1.7-0.4-2.9-0.6c-1.2-0.2-2.6-0.4-4.1-0.6
	c-1.5-0.1-3.1-0.3-4.7-0.3c-3.2,0-6.4,0.2-8.9,0.5c-1.2,0.2-2.2,0.4-2.9,0.5c-0.7,0.1-1.1,0.2-1.1,0.2c-0.5,0.1-1,0.5-1,1.1
	c-0.1,0.7,0.4,1.3,1.1,1.3L57.3,61.4z"/>
<path d="M83.7,71.2c0,0-0.4-0.2-1.1-0.3c-0.7-0.2-1.7-0.5-2.9-0.7c-0.6-0.1-1.3-0.2-1.9-0.3c-0.7-0.1-1.4-0.2-2.2-0.3
	c-1.5-0.2-3.1-0.3-4.7-0.4c-1.6-0.1-3.3-0.1-4.8,0c-1.5,0-3,0.2-4.2,0.3c-1.2,0.1-2.3,0.2-3,0.3c-0.7,0.1-1.1,0.3-1.1,0.3
	c-0.4,0.1-0.7,0.4-0.8,0.9c-0.3,0.7,0.1,1.6,0.9,1.8l0.2,0.1c0,0,0.4,0.1,1.1,0.2c0.7,0.1,1.7,0.2,2.9,0.3c1.2,0.1,2.6,0.2,4.1,0.3
	c0.7,0,1.5,0.1,2.3,0.1c0.8,0,1.6,0,2.4,0c1.6,0,3.2-0.1,4.8-0.2c0.8,0,1.5-0.1,2.2-0.2c0.7-0.1,1.4-0.1,2-0.2
	c1.2-0.2,2.2-0.4,3-0.6c0.7-0.2,1.1-0.3,1.1-0.3l0,0c0.1,0,0.2-0.1,0.3-0.3C84,71.6,83.9,71.3,83.7,71.2z"/>
</svg>
