<?xml version="1.0" encoding="utf-8"?>
<!-- Generator: Adobe Illustrator 19.2.1, SVG Export Plug-In . SVG Version: 6.00 Build 0)  -->
<!DOCTYPE svg PUBLIC "-//W3C//DTD SVG 1.1//EN" "http://www.w3.org/Graphics/SVG/1.1/DTD/svg11.dtd">
<svg version="1.1" id="Layer_1" xmlns="http://www.w3.org/2000/svg" xmlns:xlink="http://www.w3.org/1999/xlink" x="0px" y="0px"
	 viewBox="0 0 100 100" style="enable-background:new 0 0 100 100; fill:#81e4cb;" xml:space="preserve">
<path d="M85.7,2.1c6.7,0,12.2,5.5,12.2,12.2v83.6H14.3c-6.7,0-12.2-5.5-12.2-12.2V2.1H85.7 M85.7,0H0v85.7C0,93.6,6.4,100,14.3,100
	H100V14.3C100,6.4,93.6,0,85.7,0z"/>
<path d="M45,79.7c0,0-0.1,0.1-0.3,0.4c-0.2,0.3-0.5,0.6-0.9,1.1c-0.4,0.5-1,1-1.8,1.6c-0.8,0.6-1.9,1.1-3.1,1.5
	c-1.2,0.3-2.5,0.5-3.9,0.4c-0.5,0-1.4-0.1-2.1-0.3c-0.4-0.1-0.7-0.2-1.1-0.3c-0.4-0.1-0.7-0.3-1.1-0.4c-1.5-0.7-2.8-1.8-3.8-3.2
	c-1-1.4-1.5-3-1.6-4.6c-0.1-0.8-0.1-1.6,0.1-2.5c0.1-0.3,0.3-0.8,0.4-1.2c0.2-0.4,0.4-0.7,0.6-1c0.8-1.3,1.5-2.6,2.6-3.5
	c1-1,2.2-1.8,3.5-2.2c1.3-0.5,2.6-0.6,3.7-0.5c0.6,0,1.1,0.1,1.6,0.2c0.5,0.1,1,0.2,1.5,0.4c0.9,0.3,1.7,0.8,2.3,1.3
	c0.5,0.5,0.9,1,1.1,1.2c0.2,0.3,0.3,0.5,0.3,0.5c0.4,0.5,0.2,1.2-0.3,1.6c-0.5,0.4-1.2,0.2-1.6-0.3l0-0.1l0,0c0,0-0.1-0.1-0.2-0.4
	c-0.2-0.2-0.4-0.6-0.7-0.9c-0.3-0.3-0.8-0.7-1.5-1C37.9,67.3,37,67,36,67c-0.9-0.1-2,0-3,0.3c-1,0.3-2,0.9-2.9,1.7
	c-0.9,0.8-1.7,1.8-2,3c-0.1,0.3-0.1,0.6-0.1,0.9l0,0.9c0,0.5,0.1,1.1,0.2,1.7c0.2,1.2,0.8,2.2,1.5,3c0.7,0.8,1.5,1.5,2.4,1.9
	l0.7,0.3l0.7,0.2c0.5,0.1,0.9,0.2,1.5,0.2c1,0.1,2.1,0,2.9-0.1c1.7-0.3,2.9-1.2,3.9-1.8c1-0.7,1.7-1,1.7-1l0,0
	c0.5-0.3,1.2-0.1,1.4,0.4C45.3,79,45.3,79.4,45,79.7z"/>
<path d="M71.4,70.7c0-1.9-0.1-3.7-0.1-5.5c-0.1-1.7-0.1-3.4-0.2-4.7c-0.1-1.4-0.2-1.5-0.2-2.4c-0.1-0.8-0.1-1.3-0.1-1.3
	c-0.1-0.7-0.7-1.3-1.4-1.4c-0.8,0-1.5,0.6-1.5,1.4c0,0,0,0.5-0.1,1.3c0,0.8-0.1,1-0.1,2.4c0,1.4,0,3,0,4.8c0,1.7,0.1,3.6,0.1,5.4
	c0,1.8,0.1,3.7,0.2,5.4c0,1,0,1.9,0.1,2.8c-0.1,0.2-0.3,0.5-0.5,0.8c-0.3,0.4-0.6,0.9-1.1,1.5c-0.2,0.3-0.5,0.5-0.8,0.7
	c-0.2,0.2-0.6,0.4-1,0.6c-1.5,0.7-3.6,1-5.6,0.3c-1-0.3-2-0.9-2.7-1.7c-0.8-0.7-1.3-1.8-1.3-2.9c0-1,0.1-2.1,0.4-3.1
	c0.3-1,0.7-1.9,1.3-2.6c0.5-0.7,1.2-1.2,1.8-1.5c0.8-0.4,1.7-0.7,2.4-0.9c1.6-0.4,2.8-0.3,3.7-0.1c0.5,0.1,0.7,0.2,1,0.3
	c0.3,0.1,0.4,0.2,0.4,0.2c0.3,0.1,0.8,0,1.1-0.2c0.5-0.4,0.5-1.1,0.1-1.6c0,0-0.1-0.1-0.3-0.3c-0.2-0.2-0.7-0.6-1.3-0.9
	c-1.2-0.7-3.1-1.1-5.3-0.8c-1.1,0.1-2.2,0.4-3.4,0.9c-1.4,0.6-2.5,1.6-3.3,2.8c-0.8,1.2-1.3,2.7-1.5,4.1c-0.1,1.5-0.1,2.9,0.5,4.3
	c0.6,1.4,1.5,2.5,2.4,3.5c1,1,2.1,1.7,3.4,2.2c2.5,0.9,5.1,0.6,7-0.3c0.5-0.2,0.9-0.4,1.4-0.8c0.4-0.3,0.7-0.6,1-0.9
	c0.1-0.1,0.1-0.2,0.2-0.2c0,0.7,0.1,1.3,0.1,1.8c0.1,0.8,0.5,1.3,0.5,1.3l0,0c0.4,0.4,1,0.4,1.4,0c0,0,0.5-0.4,0.6-1.2
	c0.1-0.8,0.3-2,0.4-3.4c0.1-1.4,0.2-3,0.2-4.8C71.4,74.5,71.4,72.6,71.4,70.7z"/>
<path d="M53.1,50.1c0,0,0-0.3-0.2-0.8c-0.2-0.5-0.5-1.2-0.8-2.1c-0.7-1.8-1.7-4.4-2.8-7.5c-0.2-0.6-0.5-1.3-0.7-1.9c0,0,0-0.1,0-0.1
	c0-0.5-0.2-0.9-0.5-1.2c-0.8-2.3-1.7-4.8-2.6-7.4c-0.7-2-1.4-4-2.2-6.1c-0.4-1-0.7-2.1-1.2-3.1c-0.4-1.1-0.8-2.1-1.6-3.3
	c-0.2-0.3-0.4-0.7-1.1-1c-0.3-0.2-0.8-0.3-1.3-0.2c-0.5,0.1-0.8,0.3-1,0.5c-0.5,0.4-0.6,0.7-0.8,1c-0.2,0.3-0.3,0.6-0.5,0.9
	c-0.5,1.1-0.9,2.2-1.2,3.2C34,23,33.4,25,32.8,27c-1,3.4-1.9,6.5-2.8,9.3c-1.1,0.1-2.2,0.1-3.2,0.2c-1.1,0.1-2.1,0.2-2.7,0.3
	c-0.7,0.2-1,0.3-1,0.3c-0.2,0.1-0.4,0.3-0.5,0.5c-0.2,0.5,0,1.2,0.5,1.4l0,0c0,0,0.4,0.2,1,0.3c0.7,0.1,1.6,0.1,2.7,0.2
	c0.6,0,1.3,0,2,0.1c-0.7,2.4-1.4,4.4-1.7,6c-0.2,0.9-0.5,1.7-0.5,2.2c-0.1,0.5-0.1,0.8-0.1,0.8c0,0.2,0.1,0.3,0.2,0.4
	c0.3,0.2,0.6,0.2,0.9-0.1c0,0,0.2-0.2,0.5-0.7c0.3-0.5,0.6-1.2,0.9-2.1c0.4-0.9,0.8-2,1.3-3.3c0.4-1,0.7-2.1,1.1-3.3
	c1.2,0,2.4,0,3.7,0c1.5,0,3,0,4.4-0.1c1.4-0.1,2.7-0.2,3.8-0.2c1-0.1,1.9-0.1,2.5-0.2c0.2,0.5,0.4,1,0.6,1.5
	c1.3,3.1,2.4,5.7,3.1,7.5c0.4,0.9,0.7,1.6,0.9,2.1c0.2,0.5,0.4,0.7,0.4,0.7c0.2,0.3,0.7,0.5,1.1,0.5C52.8,51.3,53.2,50.7,53.1,50.1
	L53.1,50.1z M43.3,35.9c-1.1,0-2.4,0-3.9,0c-1.4,0-2.9,0-4.4,0.1c-0.8,0-1.6,0.1-2.4,0.1c0.8-2.6,1.7-5.4,2.7-8.4c0.6-2,1.3-4,2-6.1
	c0.3-1,0.7-2,1.1-2.9c0,0,0-0.1,0.1-0.2c0.3,0.6,0.6,1.4,0.9,2.2c0.4,1,0.7,2,1.1,3.1c0.7,2.1,1.4,4.1,2,6.1
	c0.7,2.1,1.4,4.1,2.1,5.9C44.3,35.9,43.8,35.9,43.3,35.9z"/>
<path d="M76.9,40.7c0-0.8-0.2-1.6-0.4-2.4c-0.4-1.5-1.2-3-2.2-4.2c-0.5-0.6-1.2-1.1-1.9-1.4c-0.7-0.3-1.4-0.6-2.1-0.8
	c-0.7-0.3-1.3-0.5-2-0.6c-0.3-0.1-0.7-0.1-1-0.2c-0.3,0-0.6,0-0.9-0.1c-1.3-0.1-2.5,0-3.6,0.3c-0.1,0-0.1,0-0.2,0.1
	c-0.1-1.9-0.2-3.8-0.3-5.6c-0.1-1.9-0.2-3.7-0.3-5.2c-0.1-1.5-0.3-2.8-0.4-3.7l-0.1-0.3l0-0.1l0-0.2c1.3,0.6-1.8-1.5-2.1,0
	c0,0.2,0,0.1,0,0.1l0,0l0,0.1l0,0.1l0,0.2c0,0.1,0.1,0.2,0.1,0.3c-0.1,0-0.1-0.1-0.2-0.1l0,0.1c-0.1,0.9-0.2,2.1-0.2,3.7
	c0,1.5,0,3.3,0,5.2c0,1.9,0,3.9,0.1,6c0,0.4,0,0.7,0,1.1c-0.5,0.3-0.9,0.7-1.3,0.9c-0.9,0.8-1.5,1.2-1.5,1.2l-0.1,0.1
	c-0.5,0.4-0.5,1.1-0.1,1.6c0.4,0.5,1.2,0.5,1.6,0.1c0,0,0.5-0.5,1.3-1.2c0,0.8,0.1,1.5,0.1,2.2c0.1,1.9,0.2,3.7,0.3,5.2
	c0.1,0.9,0.1,1.7,0.2,2.4c-0.4-0.1-0.6-0.2-0.6-0.2l0,0c-0.4-0.2-0.9,0-1.2,0.3C58,46,58.1,46.6,58.5,47c0,0,0.1,0.1,0.4,0.3
	c0.3,0.2,0.7,0.5,1.3,0.8c0.1,0,0.1,0.1,0.2,0.1c0.1,0.6,0.7,1.1,1.3,1.1c0.3,0,0.7-0.1,0.9-0.4c0.9,0.2,1.9,0.3,3,0.4
	c1.1,0,2.4,0,3.7-0.3c1.3-0.3,2.8-0.8,4-1.8c1.3-0.9,2.4-2.2,3-3.9c0.1-0.2,0.2-0.4,0.2-0.6c0.1-0.2,0.1-0.4,0.2-0.7l0.1-0.4l0-0.3
	l0-0.4L76.9,40.7z M61.6,16.7L61.6,16.7L61.6,16.7L61.6,16.7l0,0.2c0,0.1-0.1,0.2-0.2,0.3c0-0.1,0.1-0.2,0.1-0.4L61.6,16.7z
	 M73.3,41.1l0,0.2l0,0.1c0,0.1-0.1,0.4-0.2,0.6c-0.4,0.9-1,1.6-1.8,2.2c-0.8,0.6-1.7,1-2.7,1.3c-0.9,0.3-1.9,0.4-2.9,0.4
	c-1,0-1.8,0-2.6,0c0-0.8,0-1.9-0.1-3.1c0-2.6-0.2-6-0.3-9.4c0.2-0.1,0.4-0.2,0.6-0.2c0.9-0.2,1.9-0.4,3-0.3c0.3,0,0.6,0,0.9,0
	c0.3,0,0.5,0.1,0.8,0.1c0.5,0.1,1.1,0.2,1.6,0.5c0.5,0.2,1,0.6,1.3,1.1c0.3,0.5,0.6,0.9,1,1.4c0.6,0.9,0.9,2,1,3.1
	c0.1,0.6,0,1.1,0,1.7v0.2l0.1,0.1L73.3,41.1z"/>
</svg>
