<?xml version="1.0" encoding="utf-8"?>
<!-- Generator: Adobe Illustrator 19.2.1, SVG Export Plug-In . SVG Version: 6.00 Build 0)  -->
<!DOCTYPE svg PUBLIC "-//W3C//DTD SVG 1.1//EN" "http://www.w3.org/Graphics/SVG/1.1/DTD/svg11.dtd">
<svg version="1.1" id="Layer_1" xmlns="http://www.w3.org/2000/svg" xmlns:xlink="http://www.w3.org/1999/xlink" x="0px" y="0px"
	 viewBox="0 0 100 100" style="enable-background:new 0 0 100 100; fill:#d5c302;" xml:space="preserve">
<path d="M85.7,2.1c6.7,0,12.2,5.5,12.2,12.2v83.6H14.3c-6.7,0-12.2-5.5-12.2-12.2V2.1H85.7 M85.7,0H0v85.7C0,93.6,6.4,100,14.3,100
	H100V14.3C100,6.4,93.6,0,85.7,0z"/>
<path d="M44,23.7c-0.1,0-0.3,0-0.5,0c-0.7,0.1-1.1,0.4-1.4,0.7c-0.6,0.5-0.9,1-1.1,1.4c-0.2,0.4-0.4,0.8-0.6,1.2
	c-0.7,1.5-1.2,3-1.7,4.4c-0.9,2.9-1.8,5.7-2.6,8.5c-1.3,4.6-2.6,8.9-3.8,12.8c-1.6,0.1-3,0.2-4.3,0.3c-1.5,0.2-2.8,0.2-3.7,0.4
	c-0.9,0.2-1.4,0.5-1.4,0.5c-0.3,0.1-0.5,0.4-0.6,0.7c-0.3,0.7,0,1.6,0.7,1.9l0,0c0,0,0.5,0.2,1.4,0.4c0.9,0.2,2.2,0.2,3.7,0.2
	c0.8,0,1.8,0.1,2.8,0.1c-1,3.3-1.9,6.1-2.4,8.2c-0.3,1.3-0.6,2.3-0.7,3c-0.1,0.7-0.1,1.1-0.1,1.1c0,0.2,0.1,0.4,0.3,0.6
	c0.2,0.1,0.3,0.2,0.5,0.2c0.2,0,0.5-0.1,0.6-0.3c0,0,0.3-0.3,0.6-0.9c0.4-0.6,0.8-1.6,1.3-2.8c0.9-2.2,2-5.3,3.2-9c1.6,0,3.3,0,5,0
	c0.3,0,0.6,0,1,0c1.7,0,3.4,0,5-0.1c0.9-0.1,1.8-0.1,2.7-0.2c-0.4-0.2-0.7-0.5-1-0.8c-1.1-1.2-1.4-2.7-1.1-4.1c-0.3,0-0.5,0-0.8,0
	c-1.9,0-4,0.1-6,0.2c-1.1,0.1-2.2,0.1-3.3,0.2c1.1-3.5,2.3-7.4,3.6-11.5c0.9-2.7,1.7-5.5,2.7-8.3c0.5-1.4,1-2.8,1.5-4l0.1-0.2
	c0.4,0.9,0.9,2,1.3,3c0.5,1.4,1,2.8,1.5,4.2c0.9,2.8,1.9,5.6,2.8,8.3c0.2,0.6,0.3,1.2,0.5,1.7c0-1.4-0.1-2.7-0.1-4.1
	c0-0.6,0-1.2,0-1.9c0-2.3,0-4.7,0-6.9c0-0.1,0-0.2,0-0.4c-0.3-0.8-0.6-1.7-0.9-2.5c-0.6-1.5-1.1-2.9-2.2-4.5
	c-0.3-0.4-0.6-0.9-1.5-1.4c-0.1-0.1-0.2-0.1-0.3-0.2c-0.1-0.1-0.3-0.1-0.5-0.1C44.3,23.7,44.1,23.7,44,23.7"/>
<path d="M76.1,59.3c-0.1-1.1-0.2-2.1-0.5-3.1c-0.5-2-1.5-4-2.9-5.6c-0.4-0.4-0.7-0.8-1.1-1.1c-0.4-0.3-0.9-0.6-1.4-0.8
	c-0.9-0.4-1.8-0.8-2.7-1.1c-1.7-0.7-3.5-1-5.1-1.1c-1.6-0.1-3.2,0-4.7,0.4c-0.1,0-0.2,0.1-0.3,0.1c-0.1-2.5-0.2-5-0.4-7.4
	c-0.1-2.5-0.3-4.8-0.4-6.9c-0.1-2-0.4-3.7-0.5-4.9c0-0.2-0.1-0.3-0.1-0.5l0-0.1c0,0,0-0.2-0.1-0.3c0.1-0.1-2.5-1.5-2.8,0
	c0,0.2-0.1,0.9-0.1,0.9c-0.1,1.2-0.2,2.8-0.2,4.8c0,2,0,4.4,0,6.9c0,2.5,0,5.2,0.1,7.9c0,0.5,0,1,0.1,1.5c-0.6,0.5-1.2,0.9-1.7,1.3
	c-1.2,1-1.9,1.6-1.9,1.6l0,0L49.5,52c-0.6,0.6-0.6,1.5-0.1,2.1c0.6,0.6,1.5,0.6,2.1,0.1c0,0,0.6-0.6,1.7-1.6c0,1,0.1,2,0.1,3
	c0.2,2.5,0.3,4.9,0.5,6.9c0.1,1.2,0.2,2.2,0.3,3.1L54,65.4c-0.4-0.1-0.6-0.2-0.6-0.2l-0.1,0c-0.5-0.2-1.2,0-1.5,0.5
	c-0.4,0.6-0.3,1.5,0.3,1.9c0,0,0.2,0.1,0.6,0.4c0.4,0.3,1,0.7,1.8,1l0.2,0.1c0.2,0.8,0.9,1.4,1.7,1.4c0.5,0,0.9-0.2,1.2-0.5
	c0.6,0.1,1.2,0.2,1.9,0.3c0.7,0.1,1.4,0.1,2,0.2c1.5,0.1,3.2,0.1,4.9-0.3c1.8-0.4,3.6-1.1,5.3-2.3c1.7-1.2,3.2-2.9,4-5.1
	c0.1-0.3,0.2-0.6,0.3-0.8l0.1-0.4l0.1-0.5l0.1-0.5l0-0.3l0-0.5L76.1,59.3z M71.4,59.6L71.4,59.6l0,0.1l0,0.2l0,0.3l0,0.1l0,0.1
	l-0.1,0.2c0,0.1-0.1,0.3-0.2,0.4c-0.5,1.1-1.4,2.2-2.4,3c-1.1,0.8-2.3,1.3-3.5,1.7c-1.2,0.4-2.5,0.5-3.7,0.6c-0.7,0-1.3,0-1.8,0
	c-0.5,0-1.1,0-1.6-0.1c0-1.1,0-2.5-0.1-4.1c0-2-0.1-4.3-0.2-6.8c-0.1-1.8-0.1-3.7-0.2-5.7c0.3-0.1,0.5-0.2,0.8-0.3
	c1.2-0.3,2.5-0.5,4-0.5c1.4,0,2.9,0.2,4.3,0.8c0.7,0.3,1.3,0.8,1.7,1.5l0.6,0.9c0.2,0.3,0.4,0.6,0.6,0.9c0.8,1.2,1.3,2.7,1.5,4.1
	c0.1,0.7,0.2,1.5,0.2,2.2L71.4,59.6z"/>
</svg>
