<?xml version="1.0" encoding="utf-8"?>
<!-- Generator: Adobe Illustrator 19.2.1, SVG Export Plug-In . SVG Version: 6.00 Build 0)  -->
<!DOCTYPE svg PUBLIC "-//W3C//DTD SVG 1.1//EN" "http://www.w3.org/Graphics/SVG/1.1/DTD/svg11.dtd">
<svg version="1.1" id="Layer_1" xmlns="http://www.w3.org/2000/svg" xmlns:xlink="http://www.w3.org/1999/xlink" x="0px" y="0px"
	 viewBox="0 0 100 100" style="enable-background:new 0 0 100 100; fill:#fe4a5d;" xml:space="preserve">
<path d="M85.7,2.1c6.7,0,12.2,5.5,12.2,12.2v83.6H14.3c-6.7,0-12.2-5.5-12.2-12.2V2.1H85.7 M85.7,0H0v85.7C0,93.6,6.4,100,14.3,100
	H100V14.3C100,6.4,93.6,0,85.7,0z"/>
<path d="M59.8,68c-0.1-0.4-0.2-0.6-0.2-0.9L59,65.8c-0.4-0.9-0.8-1.7-1.3-2.4c-2-2.9-4-5.8-6-8.6l-3-4.3c-1-1.4-2-2.8-3-4.2
	c-2-2.8-4-5.7-5.9-8.5l-2.9-4.3c-1-1.4-2.1-2.8-3-4.2l-1.1-1.7l-0.6,1.8c-0.3,0.9-0.9,1.6-1.5,2.3c-0.5,0.8-0.9,1.6-1.3,2.4
	c-0.9,1.6-1.8,3.2-2.7,4.8l-5.6,9.6c-1.9,3.2-3.8,6.4-5.6,9.6L12.8,63c-0.5,0.8-0.9,1.6-1.3,2.5L11,66.8c-0.1,0.2-0.2,0.4-0.3,0.6
	c0,0.1-0.1,0.2-0.1,0.4c0,0.1,0,0.1,0,0.2c0,0,0,0,0,0.1c0,0,0,0,0.1,0c0.1,0,0.1,0,0.1,0.1c0,0.1,0,0,0,0l-0.2,0.1c0,0,0,0,0,0.1
	c0.1,0.1,0.3,0.1,0.3,0.1l0.2,0c0.1,0,0.2,0,0.2-0.1c0.1-0.1,0.3-0.1,0.4-0.2c0.2-0.1,0.4-0.3,0.6-0.5c0.4-0.3,0.7-0.7,1-1
	c0.6-0.7,1.2-1.5,1.8-2.2c1.1-1.5,2.2-3,3.2-4.6c2.1-3.1,4-6.3,5.8-9.6c1.9-3.2,3.7-6.5,5.4-9.8c0.9-1.7,1.7-3.3,2.5-5
	c0.4-0.9,0.8-1.7,1.2-2.6c0.1-0.2,0.1-0.5,0.2-0.7c0.5,0.9,0.9,1.9,1.4,2.8c0.8,1.5,1.7,3,2.6,4.5c1.8,3,3.7,6,5.6,8.9
	c1,1.5,1.9,2.9,3,4.3c1,1.4,2.1,2.8,3.1,4.2c1.1,1.4,2.1,2.8,3.2,4.1l3.3,4c0.5,0.7,1.1,1.3,1.7,1.9c0.3,0.3,0.5,0.6,0.7,0.9
	c0.1,0.1,0.1,0.2,0.1,0.3c-0.1,0-0.3,0-0.5,0c-0.4,0-0.7,0-1.2-0.1c-0.8-0.1-1.7-0.2-2.5-0.3c-3.4-0.3-7-0.6-10.5-0.8
	c-1.8-0.1-3.5-0.1-5.3-0.1l-2.6,0L32.8,67l-2.6,0.1c-0.9,0-1.7,0.1-2.6,0.2l-2.6,0.3l-1.3,0.1c-0.4,0-0.9,0.1-1.3,0.4l0.2,1.4
	c0.5,0.2,0.9,0.2,1.3,0.2l1.3-0.1l2.6-0.2c0.8-0.1,1.7-0.1,2.6-0.1l2.6,0l2.6,0l2.6,0.1c1.7,0.1,3.5,0.1,5.2,0.2
	c3.5,0.2,6.9,0.5,10.4,0.8c0.9,0.1,1.8,0.1,2.7,0.1c0.5,0,0.9-0.1,1.5-0.2c0.3-0.1,0.5-0.1,0.8-0.2c0.3-0.1,0.7-0.3,1-0.7
	C59.9,68.8,59.9,68.3,59.8,68z"/>
<path d="M64.4,69.3c0,0,0.4,0,1.1-0.1c0.7-0.1,1.6-0.2,2.8-0.5c2.4-0.5,5.9-1.4,9.3-3.8c1.7-1.2,3.3-2.7,4.6-4.7
	c1.3-1.9,2.3-4.2,2.8-6.7c0.2-1.2,0.4-2.5,0.4-3.8c0-0.3,0-0.7,0-1c0-0.3,0-0.8-0.1-1c-0.1-0.6-0.2-1.2-0.3-1.9
	c-0.6-2.5-1.7-5-3.3-7.1c-1.6-2.1-3.6-3.9-5.9-5.3c-2.3-1.3-4.8-2.2-7.3-2.5c-2.5-0.3-5,0-7.2,0.7c-2.2,0.7-4.1,1.9-5.7,3.2
	c-3.1,2.7-4.6,6-5.1,8.3c-0.3,1.2-0.4,2.1-0.4,2.8c0,0.6,0,1,0,1l0,0.1c0,0.6-0.5,1-1.1,1c-0.6,0-1-0.5-1-1c0,0,0-0.4,0-1.1
	c0-0.7,0.1-1.8,0.4-3.1c0.3-1.3,0.7-2.9,1.6-4.6c0.8-1.7,2.1-3.5,3.8-5.1c1.7-1.6,3.9-3.1,6.4-4c2.6-1,5.5-1.4,8.5-1.2
	c3,0.2,6,1.1,8.8,2.6c2.8,1.4,5.3,3.5,7.3,6.1c2,2.5,3.3,5.6,3.9,8.7c0.1,0.8,0.2,1.6,0.3,2.4c0,0.4,0,0.7,0,1.1c0,0.4,0,0.8,0,1.2
	c-0.1,1.5-0.3,3-0.7,4.5c-0.7,2.9-2,5.5-3.6,7.7c-1.6,2.2-3.6,3.9-5.5,5.1c-2,1.3-3.9,2.1-5.7,2.7c-1.8,0.6-3.4,0.8-4.7,1
	c-1.3,0.1-2.4,0.1-3.1,0.1c-0.7-0.1-1.1-0.1-1.1-0.1c-0.4,0-0.7-0.4-0.7-0.8C63.8,69.6,64.1,69.3,64.4,69.3z"/>
</svg>
