<?xml version="1.0" encoding="UTF-8" standalone="no"?>
<svg width="14px" height="14px" viewBox="0 0 14 14" version="1.1" xmlns="http://www.w3.org/2000/svg" xmlns:xlink="http://www.w3.org/1999/xlink">
    <!-- Generator: Sketch 3.7 (28169) - http://www.bohemiancoding.com/sketch -->
    <title>Combined Shape</title>
    <desc>Created with Sketch.</desc>
    <defs></defs>
    <g id="Page-1" stroke="none" stroke-width="1" fill="none" fill-rule="evenodd">
        <g id="Artboard-13" transform="translate(-60.000000, -19.000000)" fill="#FFFFFF">
            <path d="M68,25 L68,17.9933977 C68,17.4449463 67.5522847,17 67,17 C66.4438648,17 66,17.4447593 66,17.9933977 L66,25 L58.9933977,25 C58.4449463,25 58,25.4477153 58,26 C58,26.5561352 58.4447593,27 58.9933977,27 L66,27 L66,34.0066023 C66,34.5550537 66.4477153,35 67,35 C67.5561352,35 68,34.5552407 68,34.0066023 L68,27 L75.0066023,27 C75.5550537,27 76,26.5522847 76,26 C76,25.4438648 75.5552407,25 75.0066023,25 L68,25 Z" id="Combined-Shape" transform="translate(67.000000, 26.000000) rotate(-315.000000) translate(-67.000000, -26.000000) "></path>
        </g>
    </g>
</svg>