<svg xmlns:svg="http://www.w3.org/2000/svg" xmlns="http://www.w3.org/2000/svg" version="1.1" width="338.74" height="204.4" id="svg2"><style>.s0{fill:#000;}.s1{fill:none;stroke-width:1.83;stroke:#000;}.s2{fill:#000;font-family:Emmentaler;font-size:39.01;}.s3{fill:#000;stroke-linecap:round;stroke-linejoin:round;stroke-width:0.08;stroke:currentColor;}.s4{fill:none;stroke:#000;}</style><defs id="defs4"><clipPath id="clipPath3239"><rect width="457.6" height="123.24" x="-1.01" y="-8.3" id="rect3241" fill="#000"/></clipPath></defs><metadata id="metadata7"/><g transform="matrix(0.74273343,0,0,0.74273343,33.829699,251.74509)" id="g3243"><path d="m-23.25-142.49 410.17 0M-23.25-127.59l410.17 0M-23.25-127.59l410.17 0M-23.25-127.59l410.17 0M-23.25-112.7l410.17 0M-23.25-97.81l410.17 0M-21.94-82.92l410.17 0" id="path4735" class="s1"/><path d="m151.85-128.26c-1.97 0.3-3.75 1.01-5.34 2.13-1.59 1.12-2.79 2.5-3.58 4.13-0.3 0.61-0.51 1.17-0.63 1.69-0.12 0.52-0.17 1.1-0.14 1.73 0 0.37 0 0.64 0.01 0.83 0.01 0.19 0.04 0.38 0.1 0.58 0.37 1.34 1.1 2.4 2.2 3.17 1.1 0.77 2.47 1.2 4.12 1.29 2.39 0.03 4.63-0.65 6.69-2.05 2.07-1.39 3.48-3.18 4.24-5.35 0.13-0.42 0.22-0.79 0.27-1.13 0.04-0.34 0.06-0.74 0.06-1.21 0-0.36 0-0.64-0.01-0.84-0.01-0.19-0.04-0.4-0.1-0.63-0.14-0.5-0.35-0.98-0.63-1.46-0.28-0.47-0.59-0.88-0.95-1.21-0.88-0.77-2-1.3-3.37-1.58-0.39-0.08-0.88-0.12-1.47-0.14-0.59-0.01-1.08 0-1.47 0.03l0 0zM216.24-134.26 216.24-134.26 216.24-134.26c-1.97 0.3-3.75 1.01-5.34 2.13-1.59 1.12-2.79 2.5-3.58 4.13-0.3 0.61-0.51 1.17-0.63 1.69-0.12 0.52-0.17 1.1-0.14 1.73 0 0.37 0 0.64 0.01 0.83 0.01 0.19 0.04 0.38 0.1 0.58 0.37 1.34 1.1 2.4 2.2 3.17 1.1 0.77 2.47 1.2 4.12 1.29 2.39 0.03 4.63-0.65 6.69-2.05 2.07-1.39 3.48-3.18 4.24-5.35 0.13-0.42 0.22-0.79 0.27-1.13 0.04-0.34 0.06-0.74 0.06-1.21 0-0.36 0-0.64-0.01-0.84-0.01-0.19-0.04-0.4-0.1-0.63-0.14-0.5-0.35-0.98-0.63-1.46-0.28-0.47-0.59-0.88-0.95-1.21-0.88-0.77-2-1.3-3.37-1.58-0.39-0.08-0.88-0.12-1.47-0.14-0.59-0.01-1.08 0-1.47 0.03l0 0z" id="path6271" class="s2"/><g transform="matrix(13.723661,0,0,13.603822,100.15977,-171.51223)" id="g6275" fill="#000"><polygon points="9.04 -0.2 9.04 0.2 0.04 0.2 0.04 -0.2 9.04 -0.2 " transform="matrix(0.5540492,0,0,1.0478222,4.0406206,0)" id="polygon6277" class="s3"/></g><g transform="matrix(13.603822,0,0,13.603822,205.37893,-160.49314)" id="g6279" fill="#000"><polygon points="1.35 -0.2 1.35 -0.2 1.35 0.2 0.04 0.2 0.04 -0.2 " id="polygon6281" class="s3"/></g><rect width="1.77" height="41.83" x="156.1" y="-170.42" id="rect6283" fill="#000"/><rect width="1.77" height="43.33" x="222.45" y="-171.93" id="rect6285" fill="#000"/><path d="m242.87-106.5c-1.97 0.3-3.75 1.01-5.34 2.13-1.59 1.12-2.79 2.5-3.58 4.13-0.3 0.61-0.51 1.17-0.63 1.69-0.12 0.52-0.17 1.1-0.14 1.73 0 0.37 0 0.64 0.01 0.83 0.01 0.19 0.04 0.38 0.1 0.58 0.37 1.34 1.1 2.4 2.2 3.17 1.1 0.77 2.47 1.2 4.12 1.29 2.39 0.03 4.63-0.65 6.69-2.05 2.07-1.39 3.48-3.18 4.24-5.35 0.13-0.42 0.22-0.79 0.27-1.13 0.04-0.34 0.06-0.74 0.06-1.21 0-0.36 0-0.64-0.01-0.84-0.01-0.19-0.04-0.4-0.1-0.63-0.14-0.5-0.35-0.98-0.63-1.46-0.28-0.47-0.59-0.88-0.95-1.21-0.88-0.77-2-1.3-3.37-1.58-0.39-0.08-0.88-0.12-1.47-0.14-0.59-0.01-1.08 0-1.47 0.03l0 0zM309.25-106.5 309.25-106.5 309.25-106.5c-1.97 0.3-3.75 1.01-5.34 2.13-1.59 1.12-2.79 2.5-3.58 4.13-0.3 0.61-0.51 1.17-0.63 1.69-0.12 0.52-0.17 1.1-0.14 1.73 0 0.37 0 0.64 0.01 0.83 0.01 0.19 0.04 0.38 0.1 0.58 0.37 1.34 1.1 2.4 2.2 3.17 1.1 0.77 2.47 1.2 4.12 1.29 2.39 0.03 4.63-0.65 6.69-2.05 2.07-1.39 3.48-3.18 4.24-5.35 0.13-0.42 0.22-0.79 0.27-1.13 0.04-0.34 0.06-0.74 0.06-1.21 0-0.36 0-0.64-0.01-0.84-0.01-0.19-0.04-0.4-0.1-0.63-0.14-0.5-0.35-0.98-0.63-1.46-0.28-0.47-0.59-0.88-0.95-1.21-0.88-0.77-2-1.3-3.37-1.58-0.39-0.08-0.88-0.12-1.47-0.14-0.59-0.01-1.08 0-1.47 0.03l0 0z" id="path6291" class="s2"/><g transform="matrix(13.723661,0,0,13.603822,193.17372,-143.74615)" id="g6295" fill="#000"><polygon points="0.04 -0.2 9.04 -0.2 9.04 -0.2 9.04 0.2 0.04 0.2 " transform="matrix(0.5540492,0,0,1.0478222,4.0406206,0)" id="polygon6297" class="s3"/></g><g transform="matrix(13.603822,0,0,13.603822,298.39289,-132.72705)" id="g6299" fill="#000"><polygon points="0.04 0.2 0.04 -0.2 1.35 -0.2 1.35 -0.2 1.35 0.2 " id="polygon6301" class="s3"/></g><rect width="1.77" height="41.83" x="249.11" y="-142.66" id="rect6303" fill="#000"/><rect width="1.77" height="43.33" x="315.46" y="-144.16" id="rect6305" fill="#000"/><path d="m-3.83-84.37c1.45 0 2.74-0.12 4.15-0.33l0 1.24c0 2.41-0.08 4.9-0.25 7.35-0.29 5.27-3.86 10.08-9.05 10.08-2.82 0-5.31-1.58-6.68-3.94 0.58 0.25 1.16 0.41 1.78 0.41 2.74 0 5.02-2.28 5.02-5.02 0-2.95-2.16-5.52-5.02-5.52-3.11 0-5.93 2.45-5.93 5.52 0 5.98 4.77 10.83 10.71 10.83 6.39 0 11.04-5.6 11.41-12.03 0.17-2.57 0.21-5.15 0.21-7.68l0-1.7c1.58-0.41 3.07-1.08 4.4-2.07 3.9-2.95 5.64-7.1 5.64-11.12 0-7.01-5.31-13.78-13.53-13.78-0.04 0-0.12 0.04-0.17 0.04-1-3.9-2.12-7.84-3.32-11.7 5.19-6.02 9.96-12.16 9.96-20.04 0-6.39-3.61-15.6-7.68-20.33-0.17-0.12-0.33-0.21-0.54-0.21-0.17 0-0.37 0.12-0.54 0.21-5.02 3.82-7.93 9.71-7.93 15.98 0 2.99 0.08 5.85 0.42 8.76 0.5 3.86 1.45 7.68 2.61 11.37-6.31 7.3-13.28 14.32-13.28 23.9 0 10.71 7.64 19.79 17.6 19.79zm6.31-3.03c-0.21-6.43-1.08-13.15-2.28-18.92 5.35 0.79 8.67 5.44 8.67 10.08 0 3.82-2.57 7.64-6.39 8.84zm-6.14 0.75c-7.18 0-14.07-5.98-14.07-13.15 0-8.76 5.77-15.35 11.54-21.95 1 3.28 1.95 6.56 2.78 9.88-5.69 1.08-8.96 5.73-8.96 10.54 0 3.69 1.95 7.51 6.18 9.79 0.17 0.04 0.29 0.08 0.46 0.08 0.66 0 1.16-0.58 1.16-1.16 0-0.25-0.08-0.54-0.37-0.79-2.95-1.7-4.32-4.23-4.32-6.56 0-3.24 2.57-6.18 7.14-6.47 1.29 5.93 2.16 12.91 2.37 19.59-1.24 0.17-2.57 0.21-3.9 0.21zm3.61-69.92c1.45 3.2 1.83 4.69 1.83 8.38 0 7.01-3.73 12.66-8.18 18.05-1.12-3.82-2.28-7.55-2.28-12.16 0-5.98 3.32-11.49 8.63-14.28zm0 0M30.91-102.6 30.91-102.6 30.91-102.6c-0.44 0.29-0.49 0.83-0.49 1.37l0 8.18-10.43 0 17.73-20.62c0.39-0.44-0.05-1.08-0.73-1.08-0.15 0-0.2 0-0.34 0.1-1.42 0.39-2.94 0.78-4.41 0.78-1.52 0-2.99-0.39-4.46-0.78l-0.15 0c-0.44 0-0.83 0.39-0.83 0.98 0 7.69-3.62 14.79-8.62 20.62-0.05 0.05-0.15 0.15-0.15 0.34 0 0.59 0.54 1.47 1.96 1.47l10.43 0 0 0.49c0 2.99-1.76 5.88-4.56 5.88-0.49 0-0.73 0.29-0.73 0.69 0 0.34 0.24 0.73 0.73 0.73 2.74 0 5.44-0.83 8.18-0.83 2.74 0 5.44 0.83 8.18 0.83 0.49 0 0.73-0.39 0.73-0.73 0-0.39-0.24-0.69-0.73-0.69-2.84 0-4.51-2.89-4.51-5.88l0-0.49 4.51 0c0.64 0 0.93-0.54 0.93-0.93 0-0.44-0.29-0.88-0.93-0.88l-4.51 0 0-15.33c0-0.54-0.44-0.88-0.83-0.88-0.24 0-0.39 0.15-0.54 0.39-0.49 1.08-0.98 2.2-1.67 3.13-1.03 1.32-2.4 2.25-3.77 3.13zm0 0M20.66-115.59c0.2-2.2 2.01-3.43 3.87-3.43 1.08 0 2.2 0.39 3.04 1.37 1.52 1.86 3.72 2.74 5.98 2.74 2.99 0 8.62-2.35 8.62-6.56 0-0.44-0.39-0.73-0.73-0.73-0.34 0-0.59 0.2-0.69 0.54-0.34 1.27-1.47 1.81-2.79 1.81-1.22 0-2.79-0.49-4.11-1.42-2.16-1.57-4.46-2.25-6.56-2.25-0.54 0-1.03 0.05-1.62 0.2 6.12-3.82 15.58-4.21 15.58-13.76 0-5.54-5.68-9.01-11.71-9.01-5.05 0-9.55 3.23-9.55 7.98 0 2.35 1.96 4.31 4.31 4.31 2.4 0 4.26-1.96 4.26-4.31 0-1.71-2.2-2.6-2.2-4.26 0-1.42 1.57-2.3 3.18-2.3 3.28 0 4.41 3.87 4.41 7.59 0 11.22-14.69 10.58-14.69 21.5 0 0.44 0.39 0.69 0.73 0.69 0.34 0 0.64-0.24 0.69-0.69zm0 0M133.07-106.5l0-8.55 2.5-0.89c0.42-0.17 0.72-0.55 0.72-0.97l0-3.26c0-0.59-0.51-1.06-1.1-1.06-0.08 0-0.25 0-0.38 0.04l-1.74 0.59 0-8.64 2.5-0.85c0.42-0.17 0.72-0.59 0.72-1.06l0-3.22c0-0.59-0.51-1.1-1.1-1.1-0.08 0-0.25 0-0.38 0.08l-1.74 0.64 0-7.83c0-0.55-0.42-1.02-0.97-1.02-0.51 0-1.02 0.47-1.02 1.02l0 8.55-4.49 1.65 0-7.83c0-0.55-0.47-1.02-1.02-1.02-0.55 0-0.97 0.47-0.97 1.02l0 8.55-2.46 0.89c-0.47 0.17-0.72 0.55-0.72 0.97l0 3.26c0 0.59 0.47 1.06 1.06 1.06 0.13 0 0.3 0 0.38-0.04l1.74-0.59 0 8.64-2.46 0.85c-0.47 0.17-0.72 0.59-0.72 1.06l0 3.22c0 0.59 0.47 1.1 1.06 1.1 0.13 0 0.3 0 0.38-0.08l1.74-0.64 0 7.83c0 0.55 0.42 1.02 0.97 1.02 0.55 0 1.02-0.47 1.02-1.02l0-8.55 4.49-1.65 0 7.83c0 0.55 0.51 1.02 1.02 1.02 0.55 0 0.97-0.47 0.97-1.02zm-6.48-20.37 4.49-1.61 0 8.64-4.49 1.61 0-8.64zm0 0M381.49-83.97l3.27 0 0-59.05-3.27 0 0 59.05zm0 0M373.07-83.97l3.26 0 0-59.05-3.26 0 0 59.05zm0 0" id="path49" fill="#000"/><path d="m344.89-97.93c-1.97 0.3-3.75 1.01-5.34 2.13-1.59 1.12-2.79 2.5-3.58 4.13-0.3 0.61-0.51 1.17-0.63 1.69-0.12 0.52-0.17 1.1-0.14 1.73 0 0.37 0 0.64 0.01 0.83 0.01 0.19 0.04 0.38 0.1 0.58 0.37 1.34 1.1 2.4 2.2 3.17 1.1 0.77 2.47 1.2 4.12 1.29 2.39 0.03 4.63-0.65 6.69-2.05 2.07-1.39 3.48-3.18 4.24-5.35 0.13-0.42 0.22-0.79 0.27-1.13 0.04-0.34 0.06-0.74 0.06-1.21 0-0.36 0-0.64-0.01-0.84-0.01-0.19-0.04-0.4-0.1-0.63-0.14-0.5-0.35-0.98-0.63-1.46-0.28-0.47-0.59-0.88-0.95-1.21-0.88-0.77-2-1.3-3.37-1.58-0.39-0.08-0.88-0.12-1.47-0.14-0.59-0.01-1.08 0-1.47 0.03l0 0z" id="path3125" class="s2"/><rect width="1.77" height="47.39" x="350.38" y="-141.85" id="rect3127" fill="#000"/><path d="m350.73-147.55c0.2-0.51 0.67 0.03 1.34 1.51 0.57 1.27 2.91 4.31 5.21 6.75 4.75 5.05 7.85 10.53 7.84 13.54 0.14 2.91-1.71-1.09-2.62-3.09-1.52-3.35-3.98-6.3-7.24-8.7-3.38 1.21-5.57-0.83-4.53-10.02z" id="path3150" fill="#000"/></g><g clip-path="url(#clipPath3239)" id="g3211" transform="matrix(0.74273343,0,0,0.74273343,-0.37890732,4.5296498)"><path d="m1.01 27.06 602.05 0M1.01 41.45l602.05 0M1.01 41.45l602.05 0M1.01 41.45l602.05 0M1.01 55.85l602.05 0M1.01 70.24l602.05 0M1.01 84.64l602.05 0M40.41 70.49C36.7 69.82 26.92 59.74 31.31 55.34c1.76-1.76 5.43-2.02 8.08-2.02 18.68 0 12.81 38.73-8.08 28.28C29.03 80.46 26.18 79.5 24.24 77.56 21.05 74.38 20.22 71.54 18.18 67.46 10.81 52.72 33.49 46.1 40.41 39.18 53.58 26.01 48.85-10 37.38-4.26 28.21 0.32 28.66 41.95 33.34 51.3c0.81 1.62-0.81 4.44 0 6.06 0.59 1.19 1.6 13.05 2.02 13.13 1.65 0.33 4.77-1.66 5.05 0 0.4 2.4-3.08 3.83-4.04 6.06-0.68 1.58 2.02 8.84 2.02 11.11 0 11.74 0 28.79-17.17 20.2-2.91-1.45-4.53-9.13-3.03-12.12 1.38-2.77 10.35-0.89 6.06-3.03M79.3 49.28C53.47 38.88 80.12 14.2 84.85 33.12 87.24 42.68 70.44 66.18 63.64 59.38c-1.5-1.5-0.4-7.77 3.03-6.06 2.13 1.06 2.84 5.94 5.05 5.05 3.71 0.78 0.04 11.63 14.14-1.01 0.49-0.49 0.75-4.27 1.01-5.05M70.71 68.47c2.91 1.76-4.47 19.09-4.04 19.19 3.15 0.79 14.14 0.01 14.14-3.03M78.79 76.55C78.07 83.38 80.32 93.7 77.78 98.78M136.37 34.13c4.58 8.48 0.37 21.96 4.04 29.29M153.54 35.14c-1.77 8.19-1.01 16.85-1.01 25.25M130.31 43.22c8.49-0.51 16.61-1.01 25.25-1.01M129.3 52.31c10.15-0.46 21.55-0.34 28.28 3.03M184.86 44.23c-1.35 0.34-3.7 2.36-4.04 1.01-0.34-1.35 4.66-2.25 4.04-1.01-1.13 2.26-4.93 1.78-6.06 4.04-9.08 18.15 18.48 1.31 12.12-5.05-2.45-2.45-17.62 4.6-13.13 9.09 3.03 3.03 9.77-4.7 7.07-8.08-2.86-3.58-9.52 5.63-7.07 8.08 2.36 2.36 11.28-4.93 7.07-8.08-1.12-0.84-8.53 4.6-6.06 7.07 2.65 2.65 8.76-5.72 6.06-7.07-11.02-5.51-3.81 19.06 0 0zM184.86 48.27c-1.35 1.01-3.03 4.38-4.04 3.03-1.01-1.35 5.23-4.22 4.04-3.03-15.84 15.84 10.86 5.81 6.06 1.01-4.63-4.63-10.28 6.06-9.09 6.06 1.39 0 6.54-11.24 7.07-12.12 0.69-1.15-3.78-1.32-4.04 0-0.33 1.65 0.98 3.68 0 5.05-1.38 1.94-6.73 3.37-5.05 5.05 1.68 1.68 5.7-2.76 5.05-5.05-2.24-7.84-8.74 1.36-7.07 3.03 2.76 2.76 11.76-6.42 9.09-9.09-3.74-3.74-4.67 1.65-2.02 6.06zM234.36 37.16c-5.7-5.8-12.64 6.55-9.09 10.1 7.63 7.63 19.98-15.08 14.14-13.13-12.7 4.23 2.4 3.51-10.1 1.01-1.04-0.21-0.53 2.08-1.01 3.03-0.56 1.13-3.73 5.36-2.02 7.07 3.21 3.21 11.42-4.74 8.08-8.08-2.86-2.86-10.82 6.35-8.08 9.09 3.76 3.76 10.59-7.84 8.08-9.09-5.02-2.51-11.24 14.06 0 0zM190.92 47.26c4.26-5.41 0.11-50.62 2.02-52.53 1.05-1.05 3.41 0.69 4.04 1.01 6.13 3.07 21.13 0 28.28 0 2.93 0 3.03 29.29 3.03 35.36 0 1.54 0.26 11.86 1.01 11.11 0.79-0.79-0.88-1.76-1.01-2.02M213.14 6.85c5.24 0.23 8.98-1.01 14.14-1.01M262.64 63.42c-3.1 0.96-4.1 2.08-6.06 4.04-14.2 14.2 13.13 9.85 13.13-4.04 0-1.37 0.54-3.26-1.01-4.04-0.69-0.35-18.55 8.72-14.14 13.13 3.25 3.25 11.99-6.75 8.08-9.09-1.25-0.75-13.25 5.94-10.1 9.09 3.48 3.48 11.45-5.95 10.1-9.09-3.31-7.72-7.7 3.28-8.08 4.04M320.22 62.41c-18.69-2.8-15.28 22.92-4.04 6.06 1.31-1.96 5.26-2.4 4.04-6.06-2.28-6.84-18.31 6.94-13.13 12.12 4.23 4.23 13.89-10.23 13.13-12.12-1.52-3.8-15.17 5.03-11.11 9.09 2.9 2.9 11.61-15.65-1.01-3.03M269.71 66.45c9.28-4.8 7.79-47.18 12.12-51.52 0.51-0.51 17 1.01 20.2 1.01 2.13 0 13.69-1.46 15.15 0 1.31 1.31-5.15 47.67-7.07 51.52M304.06 26.05c5.5 0.5 10.72 6.29 11.11 7.07M361.63 73.52c-4.42-5.55-16.43 6.8-12.12 11.11 4.54 4.54 14.48-6.98 12.12-11.11-5.86-10.25-12.85 5.33-12.12 6.06 1.48 1.48 12.12-6.04 12.12-6.06 0-3.52-15.77 0.79-13.13 6.06 2.87 5.74 12.94-7.98 5.05-4.04M360.62 68.47c3.23-15.39 6.06-30.82 6.06-47.48 0-3.7 0-7.41 0-11.11 0-1.01-1.01-3.03 0-3.03 1.21 0 1.16 2.17 2.02 3.03 0.71 0.71 2.07-0.32 3.03 0 10.32 3.44 16.15 14.17 12.12 22.22M409.11 21c-0.82 7.92-4.68 61.25-6.06 62.63-1.44 1.44-1.01-4.7-1.01-5.05M418.2 22.01c1.42 22.63-6.06 44.92-6.06 66.67" id="path2985" class="s4"/></g><path d="m179.51 97.39-5.02-0.06 0-21.31-11.21 0 0 21.16-4.03-0.05 9.95 9.26 10.31-8.99z" id="rect5243" fill="#808080"/></svg>