<?xml version="1.0" encoding="UTF-8" standalone="no"?>
<svg width="72px" height="16px" viewBox="0 0 72 16" version="1.1" xmlns="http://www.w3.org/2000/svg" xmlns:xlink="http://www.w3.org/1999/xlink">
    <!-- Generator: Sketch 3.7 (28169) - http://www.bohemiancoding.com/sketch -->
    <title>myscript-developer-logo</title>
    <desc>Created with Sketch.</desc>
    <defs>
        <linearGradient x1="0.006261%" y1="0.0769727083%" x2="100.006263%" y2="100.076974%" id="linearGradient-1">
            <stop stop-color="#00ACC8" offset="0%"></stop>
            <stop stop-color="#00A7C2" offset="18.53%"></stop>
            <stop stop-color="#0098B1" offset="43.43%"></stop>
            <stop stop-color="#007F95" offset="71.82%"></stop>
            <stop stop-color="#006072" offset="100%"></stop>
        </linearGradient>
    </defs>
    <g id="Page-1" stroke="none" stroke-width="1" fill="none" fill-rule="evenodd">
        <g id="MyScript-Brand" transform="translate(-10.000000, -10.000000)">
            <g id="myscript-developer-logo" transform="translate(10.000000, 10.000000)">
                <g id="logo">
                    <g id="Group">
                        <g id="logo-typo" transform="translate(21.333333, 2.000000)" fill="#000000">
                            <g id="typo-myscript">
                                <polygon id="M" points="9.03333333 9.8 8.5 2.9 6.13333333 9.83333333 4.56666667 9.83333333 2.16666667 2.9 1.7 9.8 0.0666666667 9.8 0.8 0.366666667 3.1 0.366666667 5.46666667 7.46666667 7.86666667 0.366666667 10.1 0.366666667 10.8333333 9.8"></polygon>
                                <path d="M14.8666667,10.1333333 C14.3,11.7666667 13.5333333,12.2666667 12.2666667,12.2666667 C12,12.2666667 11.8333333,12.2333333 11.6666667,12.2 L11.4666667,10.8666667 C11.6666667,10.9 11.9,10.9666667 12.2333333,10.9666667 C12.7,10.9666667 13.1,10.7666667 13.3,10.2666667 L13.4333333,9.83333333 L11.0333333,3.3 L12.7333333,3.1 L14.2666667,7.8 L15.7333333,3.2 L17.3666667,3.2 L14.8666667,10.1333333 L14.8666667,10.1333333 Z" id="y"></path>
                                <path d="M20.6333333,9.9 C19.5,9.9 18.5,9.63333333 17.6666667,9.26666667 L17.9333333,7.63333333 C18.7333333,8.1 19.7,8.46666667 20.6666667,8.46666667 C21.5,8.46666667 22.0666667,8.06666667 22.0666667,7.33333333 C22.0666667,6.63333333 21.7333333,6.36666667 20.3666667,5.76666667 C18.5333333,5.03333333 17.8,4.43333333 17.8,2.96666667 C17.8,1.3 19.0666667,0.333333333 20.8333333,0.333333333 C21.9,0.333333333 22.6333333,0.533333333 23.3333333,0.9 L23.0666667,2.53333333 C22.4,2.1 21.5666667,1.8 20.8333333,1.8 C19.9333333,1.8 19.5333333,2.23333333 19.5333333,2.8 C19.5333333,3.4 19.8333333,3.66666667 21.1333333,4.23333333 C23.0666667,5.03333333 23.8,5.7 23.8,7.16666667 C23.8333333,8.93333333 22.4666667,9.9 20.6333333,9.9" id="S"></path>
                                <path d="M27.4333333,9.93333333 C25.6,9.93333333 24.3,8.7 24.3,6.53333333 C24.3,4.23333333 25.7333333,3.06666667 27.5,3.06666667 C28.3666667,3.06666667 29.0333333,3.3 29.5666667,3.63333333 L29.3333333,5.1 C28.7666667,4.7 28.2333333,4.5 27.6,4.5 C26.6666667,4.5 25.9666667,5.2 25.9666667,6.5 C25.9666667,7.86666667 26.7,8.53333333 27.7,8.53333333 C28.2666667,8.53333333 28.8,8.4 29.4,7.9 L29.6,9.3 C28.9333333,9.73333333 28.2666667,9.93333333 27.4333333,9.93333333" id="c"></path>
                                <path d="M32,6 L32,9.8 L30.3333333,9.8 L30.3333333,3.2 L31.7333333,3.2 L31.9333333,4.53333333 C32.3666667,3.76666667 33.0333333,3.13333333 34.0333333,3.06666667 L34.3,4.7 C33.3,4.76666667 32.4333333,5.3 32,6" id="r"></path>
                                <path d="M35.6333333,2.06666667 C35.1,2.06666667 34.6666667,1.7 34.6666667,1.13333333 C34.6666667,0.566666667 35.1,0.166666667 35.6333333,0.166666667 C36.1666667,0.166666667 36.6,0.566666667 36.6,1.13333333 C36.5666667,1.7 36.1333333,2.06666667 35.6333333,2.06666667 L35.6333333,2.06666667 Z M34.8,3.2 L36.4333333,3.2 L36.4333333,9.8 L34.8,9.8 L34.8,3.2 L34.8,3.2 Z" id="i"></path>
                                <path d="M40.7,9.86666667 C40.0666667,9.86666667 39.5666667,9.76666667 39.1666667,9.6 L39.1666667,12.1 L37.5333333,12.3333333 L37.5333333,3.2 L38.9333333,3.2 L39.0666667,4.1 C39.5333333,3.56666667 40.1666667,3.06666667 41.1,3.06666667 C42.4666667,3.06666667 43.6,4.1 43.6,6.33333333 C43.5666667,8.76666667 42.2,9.86666667 40.7,9.86666667 M40.6333333,4.5 C40.0666667,4.5 39.6,4.86666667 39.1333333,5.43333333 L39.1333333,8.26666667 C39.5333333,8.46666667 39.8333333,8.53333333 40.4,8.53333333 C41.2333333,8.53333333 41.9,7.83333333 41.9,6.4 C41.9333333,5.13333333 41.3666667,4.5 40.6333333,4.5" id="p"></path>
                                <path d="M46.8666667,9.9 C45.5666667,9.9 44.7,9.43333333 44.7,7.93333333 L44.7,4.53333333 L43.7666667,4.53333333 L43.7666667,3.2 L44.7,3.2 L44.7,1.1 L46.3,0.866666667 L46.3,3.2 L47.6333333,3.2 L47.8333333,4.53333333 L46.2666667,4.53333333 L46.2666667,7.66666667 C46.2666667,8.2 46.5,8.46666667 47.1333333,8.46666667 C47.3333333,8.46666667 47.5,8.46666667 47.6333333,8.43333333 L47.8333333,9.8 C47.6333333,9.83333333 47.3333333,9.9 46.8666667,9.9" id="t"></path>
                                <path d="M49.3333333,10.1666667 C48.8,10.1666667 48.4333333,9.8 48.4333333,9.23333333 C48.4333333,8.7 48.8,8.3 49.3333333,8.3 C49.8666667,8.3 50.2333333,8.66666667 50.2333333,9.23333333 C50.2333333,9.8 49.8666667,10.1666667 49.3333333,10.1666667 L49.3333333,10.1666667 Z M49.3333333,8.43333333 C48.9,8.43333333 48.5666667,8.73333333 48.5666667,9.23333333 C48.5666667,9.73333333 48.9,10.0333333 49.3333333,10.0333333 C49.7666667,10.0333333 50.1,9.73333333 50.1,9.23333333 C50.1,8.73333333 49.7666667,8.43333333 49.3333333,8.43333333 L49.3333333,8.43333333 Z M49.5666667,9.73333333 L49.3,9.33333333 L49.2333333,9.33333333 L49.2333333,9.73333333 L49,9.73333333 L49,8.7 L49.3333333,8.7 C49.5666667,8.7 49.7,8.8 49.7,9 C49.7,9.13333333 49.6333333,9.23333333 49.5,9.26666667 L49.7666667,9.66666667 L49.5666667,9.73333333 L49.5666667,9.73333333 Z M49.3333333,8.9 L49.2333333,8.9 L49.2333333,9.2 L49.3333333,9.2 C49.4333333,9.2 49.5,9.16666667 49.5,9.06666667 C49.5,8.93333333 49.4333333,8.9 49.3333333,8.9 L49.3333333,8.9 Z" id="_xAE_"></path>
                            </g>
                        </g>
                        <g id="logo-icon">
                            <path d="M13.664901,0 C14.9545406,0 16,1.04363275 16,2.33509902 L16,16 L2.33509902,16 C1.04545944,16 0,14.9563673 0,13.664901 L0,0 L13.664901,0 Z" id="Rectangle-45" fill="url(#linearGradient-1)"></path>
                            <g id="squares" transform="translate(0.000000, 6.000000)">
                                <rect id="Rectangle-46" fill="#005060" x="14" y="8" width="2" height="2"></rect>
                                <rect id="Rectangle-46-Copy" fill="#006A7D" x="12" y="8" width="2" height="2"></rect>
                                <rect id="Rectangle-46-Copy-2" fill="#006577" x="10" y="8" width="2" height="2"></rect>
                                <rect id="Rectangle-46-Copy-3" fill="#005D6F" x="8" y="8" width="2" height="2"></rect>
                                <rect id="Rectangle-46-Copy-4" fill="#00798F" x="6" y="8" width="2" height="2"></rect>
                                <rect id="Rectangle-46-Copy-5" fill="#007488" x="4" y="8" width="2" height="2"></rect>
                                <rect id="Rectangle-46-Copy-6" fill="#006B7F" x="2" y="8" width="2" height="2"></rect>
                                <rect id="Rectangle-46-Copy-7" fill="#00596A" x="12" y="6" width="2" height="2"></rect>
                                <rect id="Rectangle-46-Copy-8" fill="#007286" x="10" y="6" width="2" height="2"></rect>
                                <rect id="Rectangle-46-Copy-9" fill="#006C7F" x="8" y="6" width="2" height="2"></rect>
                                <rect id="Rectangle-46-Copy-10" fill="#00667A" x="6" y="6" width="2" height="2"></rect>
                                <rect id="Rectangle-46-Copy-11" fill="#007F95" x="4" y="6" width="2" height="2"></rect>
                                <rect id="Rectangle-46-Copy-12" fill="#005A6C" x="14" y="4" width="2" height="2"></rect>
                                <rect id="Rectangle-46-Copy-13" fill="#006F82" x="10" y="4" width="2" height="2"></rect>
                                <rect id="Rectangle-46-Copy-14" fill="#007F96" x="6" y="4" width="2" height="2"></rect>
                                <rect id="Rectangle-46-Copy-15" fill="#008CA4" x="0" y="4" width="2" height="2"></rect>
                                <rect id="Rectangle-46-Copy-16" fill="#00697C" x="14" y="2" width="2" height="2"></rect>
                                <rect id="Rectangle-46-Copy-17" fill="#006F82" x="12" y="2" width="2" height="2"></rect>
                                <rect id="Rectangle-46-Copy-18" fill="#007D93" x="10" y="2" width="2" height="2"></rect>
                                <rect id="Rectangle-46-Copy-19" fill="#0089A1" x="4" y="2" width="2" height="2"></rect>
                                <rect id="Rectangle-46-Copy-20" fill="#00788D" x="14" y="0" width="2" height="2"></rect>
                            </g>
                            <rect id="pix" fill="#CFDE00" x="14" y="12" width="2" height="2"></rect>
                            <path d="M11.1649369,5.99808768 C11.2649369,5.59808768 11.4649369,5.16475435 11.5316035,4.86475435 C11.5316035,5.23142101 11.5649369,5.69808768 11.5982702,6.09808768 L11.9982702,11.9980877 L13.9982702,11.9980877 L13.1316035,2.43142101 L10.3982702,2.43142101 L8.89827021,7.83142101 C8.79827021,8.29808768 8.69827021,8.73142101 8.63160355,9.03142101 C8.53160355,8.63142101 8.46493688,8.19808768 8.39827021,7.79808768 C8.23160355,6.63142101 7.86493688,4.53142101 7.43160355,2.99808768 C7.26493688,2.23142101 6.29827021,2.03142101 5.73160355,2.29808768 C5.29827021,2.46475435 5.06493688,2.99808768 4.93160355,3.43142101 C4.73160355,4.09808768 4.56493688,4.76475435 4.39827021,5.46475435 C4.26493688,6.09808768 4.09827021,6.96475435 3.96493688,7.59808768 C3.93160355,7.76475435 3.86493688,8.06475435 3.69827021,8.06475435 C3.56493688,8.06475435 3.56493688,7.36475435 3.56493688,7.16475435 C3.56493688,6.43142101 3.53160355,5.39808768 3.39827021,4.66475435 C3.23160355,3.83142101 2.99827021,2.86475435 1.93160355,2.99808768 C1.63160355,3.03142101 1.13160355,3.23142101 1.19827021,3.53142101 C1.29827021,3.96475435 1.43160355,4.49808768 1.49827021,4.96475435 C1.79827021,6.73142101 2.03160355,9.73142101 2.16493688,11.2647543 C2.19827021,11.931421 2.93160355,12.2647543 3.63160355,11.9647543 C3.96493688,11.831421 4.19827021,11.3980877 4.29827021,11.0980877 C4.99827021,9.26475435 5.43160355,7.29808768 5.99827021,5.43142101 C5.99827021,5.39808768 6.06493688,5.16475435 6.13160355,5.16475435 C6.43160355,5.16475435 6.83160355,9.56475435 6.93160355,9.99808768 C7.03160355,10.631421 7.23160355,11.7647543 7.96493688,11.931421 C8.09827021,11.9647543 8.29827021,11.9647543 8.46493688,11.9647543 C8.53160355,11.9980877 9.43160355,11.9980877 9.43160355,11.9980877 L11.1649369,5.99808768 Z" id="m" fill="#FFFFFF"></path>
                        </g>
                    </g>
                </g>
            </g>
        </g>
    </g>
</svg>