<?xml version="1.0" encoding="UTF-8" standalone="no"?>
<svg width="12px" height="24px" viewBox="0 0 12 24" version="1.1" xmlns="http://www.w3.org/2000/svg" xmlns:xlink="http://www.w3.org/1999/xlink">
    <!-- Generator: Sketch 3.7 (28169) - http://www.bohemiancoding.com/sketch -->
    <title>Group 5 Copy 3</title>
    <desc>Created with Sketch.</desc>
    <defs></defs>
    <g id="Page-1" stroke="none" stroke-width="1" fill="none" fill-rule="evenodd" stroke-linecap="round" stroke-linejoin="round">
        <g id="Apps-Small" transform="translate(-151.000000, -187.000000)" stroke-width="2" stroke="#FFFFFF">
            <g id="Group-17" transform="translate(27.000000, 188.000000)">
                <g id="Group-5-Copy-3" transform="translate(126.000000, 1.000000)">
                    <g id="Icon-Pen">
                        <path d="M4.6109333,20.1254001 C4.27352416,20.8845706 3.7302711,20.89311 3.3890667,20.1254001 L2.19907951,17.4479289 C2.08913093,17.2005446 2,16.7850572 2,16.5095568 L2,1.5086366 C2,0.675439618 2.67854548,8.6779136e-09 3.50083274,9.22166556e-09 L4.49916726,9.88183188e-09 C5.3280543,1.04299481e-08 6,0.666420158 6,1.5086366 L6,16.5095568 C6,16.7804211 5.90886712,17.205049 5.80092049,17.4479289 L4.6109333,20.1254001 Z" id="Rectangle-1"></path>
                        <path d="M0,4 L7.0026083,4 C8.10573727,4 9,4.88670635 9,5.99810135 L9,12" id="Path-2"></path>
                    </g>
                </g>
            </g>
        </g>
    </g>
</svg>