<?xml version="1.0" encoding="UTF-8"?>
<svg width="112px" height="112px" viewBox="0 0 112 112" version="1.1" xmlns="http://www.w3.org/2000/svg" xmlns:xlink="http://www.w3.org/1999/xlink">
    <!-- Generator: Sketch 40.3 (33839) - http://www.bohemiancoding.com/sketch -->
    <title>myscript-shape</title>
    <desc>Created with Sketch.</desc>
    <defs>
        <rect id="path-1" x="0" y="0" width="112" height="112"></rect>
        <mask id="mask-2" maskContentUnits="userSpaceOnUse" maskUnits="objectBoundingBox" x="0" y="0" width="112" height="112" fill="white">
            <use xlink:href="#path-1"></use>
        </mask>
    </defs>
    <g id="MyScript-Technologies" stroke="none" stroke-width="1" fill="none" fill-rule="evenodd">
        <g id="myscript-shape">
            <use id="Rectangle-5" stroke="#0065B8" mask="url(#mask-2)" stroke-width="4" xlink:href="#path-1"></use>
            <path d="M11.7756603,76.1858099 C11.8123291,76.1281874 11.7255212,76.0638298 11.6566735,76.0720616 C11.5541503,75.9141609 11.5593887,75.8542934 11.5661238,75.7787106 C11.579594,75.6440086 11.6102762,75.510055 11.6454483,75.3828364 C11.7270179,75.1358828 11.8392695,74.9031477 11.9365543,74.6606841 L12.5457066,73.2133861 C12.9804947,72.2644854 13.4736536,71.3492603 13.9840245,70.4452603 L16.9976073,64.9786046 C19.0323556,61.3483861 21.1890841,57.7892603 23.2754682,54.1889755 L29.542104,43.4045848 C30.5763159,41.6033199 31.5925675,39.7938232 32.5773887,37.972353 C33.0870113,37.0698497 33.5180576,36.1306775 34.0650974,35.2498762 C34.6824815,34.4034987 35.4151106,33.6027702 35.7473755,32.6231874 L36.4440841,30.5704788 L37.6257199,32.5086907 C38.6404748,34.1722603 39.9051768,35.6839159 41.0351768,37.2733993 L44.3316338,42.0957305 C46.5572099,45.2896642 48.7386338,48.5067967 51.0053689,51.6633132 C52.144349,53.2378298 53.2661172,54.8228232 54.3684285,56.4212868 L57.6933225,61.2084457 C59.9420974,64.3851675 62.1571967,67.5686245 64.3805278,70.8471212 C64.9545079,71.6583265 65.3997728,72.5705583 65.8158523,73.5366709 L66.451945,75.0595517 C66.5537199,75.3349424 66.6659715,75.6327834 66.7250907,76.0279093 C66.7819649,76.394598 66.7752298,76.9775583 66.4182695,77.4886775 C66.0845079,77.9676179 65.6093093,78.2011013 65.2950046,78.3230815 C64.9440311,78.4660152 64.6424483,78.5326179 64.3520907,78.5902404 C63.7736205,78.6987503 63.2393026,78.7526311 62.7207,78.7878033 C61.6790046,78.8648828 60.6867,78.7990285 59.7033755,78.7054854 C55.7850444,78.3387967 51.937806,77.9706113 48.0576404,77.770055 C46.1201768,77.6593 44.1812166,77.6054192 42.2415079,77.5388166 L39.3304483,77.4647305 L36.4336073,77.4879291 L33.5000974,77.5156179 C32.5167728,77.5088828 31.5461702,77.5403132 30.5927795,77.6286179 L27.7116536,77.8314192 L26.269594,77.9324457 C25.789157,77.9683662 25.3057265,77.9706113 24.7923623,77.7498497 L24.5955477,76.1371675 C25.0557795,75.8325914 25.5474417,75.7502735 26.0406007,75.7016311 L27.5208258,75.5504656 L30.4850179,75.2473861 C31.4780709,75.1261543 32.4598987,75.062545 33.4334947,75.038598 L36.3647596,74.9166179 L39.3326934,74.7976311 L42.2886536,74.7774258 C44.2597927,74.7781742 46.2301834,74.853757 48.1990775,74.9383199 C52.1331238,75.1089424 56.0783954,75.4531808 59.9510775,75.7832007 C60.9164417,75.8513 61.8743225,75.9440947 62.7873026,76.0743066 C63.2460377,76.1401609 63.692051,76.1835649 64.0856801,76.192545 C64.4710775,76.2322073 64.822051,76.0840351 64.661157,76.2314589 C64.5915609,76.5480086 64.6880974,76.2030219 64.4867927,75.8647702 C64.3341305,75.5137967 64.0512563,75.1508497 63.7466801,74.8051146 C63.1330377,74.1113993 62.4430642,73.4319026 61.8720775,72.6611079 L58.1962099,68.1246444 C56.9457265,66.6159821 55.7536139,65.0571808 54.5555146,63.5013728 C53.3686404,61.9373331 52.1570709,60.3882603 51.0255742,58.7823132 C49.8671371,57.1943265 48.7633291,55.5681742 47.6917,53.9218166 C45.5529318,50.6253596 43.4276338,47.3229159 41.4445212,43.9344126 C40.4529649,42.2401609 39.444945,40.5578828 38.5005344,38.8374391 C37.5763291,37.1035252 36.9414954,35.6642477 36.9414954,35.6642477 C36.9414954,35.6642477 36.8000158,36.2448703 36.7187265,36.5310417 C36.3565278,37.5293331 35.8536404,38.4565318 35.4151106,39.4136642 C34.5043755,41.3122139 33.5652033,43.192055 32.6103159,45.0614192 C30.7132629,48.8076311 28.6889914,52.479757 26.5943755,56.1084788 C24.4885344,59.7304656 22.3744616,63.3479623 20.052349,66.8419821 C18.8819384,68.5826311 17.6838391,70.3068166 16.4400907,72.0055583 C15.8286934,72.8609159 15.1881106,73.7005583 14.4659583,74.4893132 C14.0932828,74.8762073 13.7168656,75.2608563 13.3090179,75.627545 C13.1039715,75.8108894 12.9138921,76.0032139 12.6766669,76.1700947 C12.5524417,76.2501675 12.4237265,76.322757 12.2650775,76.3841212 C12.1887464,76.4095649 12.1049318,76.4447371 12.0046536,76.4612007 L11.8265477,76.5001146 C11.8796801,76.4948762 11.5668722,76.5697106 11.4995212,76.4200417 C11.4673424,76.3556841 11.7756603,76.1858099 11.7756603,76.1858099 Z" id="Fill-7" fill="#0065B8"></path>
            <path d="M71.8552907,77.480745 C71.8552907,77.480745 72.2668801,77.4313543 73.0384232,77.3385596 C73.7860192,77.2405265 74.8531583,77.0871159 76.2286152,76.8259437 C78.9331318,76.3021026 82.8514629,75.2761225 86.674006,72.5985464 C88.5748007,71.2739768 90.4022576,69.5183609 91.8697609,67.3474139 C93.3439993,65.1846987 94.4261053,62.6036589 94.9679066,59.8108377 C95.2410523,58.4144272 95.3802444,56.9663808 95.3892245,55.4951358 C95.3809927,55.1426656 95.4004497,54.7228444 95.3720126,54.424255 C95.3443238,54.044096 95.3435755,53.5816192 95.2919397,53.2710563 C95.220847,52.6087715 95.1123371,51.8724007 94.9499464,51.1659636 C94.3250788,48.326745 93.0543901,45.5997781 91.2523768,43.2335132 C89.4526086,40.8709901 87.1828801,38.8167848 84.6100722,37.317851 C82.045496,35.8129305 79.2062775,34.8288576 76.3857675,34.516798 C73.6131517,34.1852815 70.7918934,34.5055728 68.3478007,35.3519503 C65.8790126,36.190096 63.7222841,37.4944603 61.9906152,38.988904 C58.4906086,42.0039834 56.8674497,45.7045464 56.2485689,48.3057914 C55.9290258,49.6206325 55.825006,50.6870232 55.7613967,51.4121689 C55.7277212,52.1410563 55.7090126,52.5301954 55.7090126,52.5301954 L55.7060192,52.5997914 C55.6768338,53.2298974 55.1410192,53.7170695 54.5094166,53.6878841 C53.8912841,53.659447 53.4100987,53.1438377 53.4175821,52.5301954 C53.4175821,52.5301954 53.4243172,52.0961556 53.4355424,51.2827053 C53.4796947,50.4700033 53.5590192,49.2711556 53.8718272,47.7729702 C54.1981053,46.2830166 54.7069795,44.4705265 55.6873106,42.5577583 C56.6407013,40.6367583 58.065549,38.625957 59.9872974,36.7925132 C61.9060523,34.9598179 64.3583768,33.3404007 67.2245358,32.2493146 C70.1004232,31.1447583 73.3474894,30.6276523 76.7337477,30.9022947 C80.074357,31.1694536 83.4546285,32.143798 86.5752245,33.766957 C89.6980656,35.3811358 92.5537477,37.6920232 94.7651053,40.5581821 C96.9974166,43.4048841 98.5045821,46.8457715 99.1002642,50.3727185 C99.2529265,51.2557649 99.3427278,52.1245927 99.3891252,53.0630166 C99.4280391,53.5524338 99.4033437,53.8929305 99.4123238,54.3105066 C99.4242974,54.8104007 99.3808934,55.1868179 99.3666748,55.6283411 C99.267145,57.3315728 99.0179464,59.0108576 98.6160854,60.6265331 C97.8161053,63.8608775 96.3860192,66.8288113 94.5435954,69.2556921 C92.6989265,71.6848179 90.520496,73.6088113 88.3166219,75.0329106 C86.109006,76.4615 83.8856748,77.4051623 81.8703834,78.0158113 C79.8543437,78.6331954 78.0493371,78.969202 76.5548934,79.0956722 C75.0731715,79.2535728 73.8713305,79.2154073 73.0758404,79.1817318 C72.301304,79.1203675 71.8882179,79.0874404 71.8882179,79.0874404 C71.442953,79.0522682 71.1099397,78.6631291 71.1458603,78.2186126 C71.1765424,77.8287252 71.4803702,77.5256457 71.8552907,77.480745" id="Fill-8" fill="#0065B8"></path>
        </g>
    </g>
</svg>