<?xml version="1.0" encoding="UTF-8"?>
<svg width="112px" height="112px" viewBox="0 0 112 112" version="1.1" xmlns="http://www.w3.org/2000/svg" xmlns:xlink="http://www.w3.org/1999/xlink">
    <!-- Generator: Sketch 40.3 (33839) - http://www.bohemiancoding.com/sketch -->
    <title>myscript-text</title>
    <desc>Created with Sketch.</desc>
    <defs>
        <rect id="path-1" x="0" y="0" width="112" height="112"></rect>
        <mask id="mask-2" maskContentUnits="userSpaceOnUse" maskUnits="objectBoundingBox" x="0" y="0" width="112" height="112" fill="white">
            <use xlink:href="#path-1"></use>
        </mask>
    </defs>
    <g id="MyScript-Technologies" stroke="none" stroke-width="1" fill="none" fill-rule="evenodd">
        <g id="myscript-text">
            <use id="Rectangle-5" stroke="#0065B8" mask="url(#mask-2)" stroke-width="4" xlink:href="#path-1"></use>
            <path d="M45.9729026,58.7395828 C44.2225252,58.7306026 42.1810417,58.7193775 39.9928828,58.707404 C37.8062205,58.711894 35.4751278,58.7837351 33.1477768,58.9259205 C31.8980417,58.9977616 30.6505517,59.0673576 29.4240152,59.1369536 C30.7126642,55.1250795 32.1030881,50.7001192 33.5541278,46.0491589 C34.5262272,42.9487682 35.5290086,39.7391192 36.6043795,36.5549139 C37.1454325,34.9736623 37.7186642,33.3774437 38.3697238,31.9772914 C38.4086377,31.8964702 38.4483,31.8201391 38.4879623,31.7415629 C38.9945914,32.7316225 39.4840086,33.9918344 39.9262801,35.1742185 C40.5129821,36.7509801 41.0660086,38.367404 41.6115517,39.975596 C42.6884192,43.2181722 43.7480748,46.4098609 44.7733066,49.4975298 C45.8284722,52.7498344 46.9509887,55.8509735 48.055545,58.7702649 C47.4216974,58.7582914 46.7264854,58.7478146 45.9729026,58.7395828 L45.9729026,58.7395828 Z M61.1650417,80.8561523 C61.1650417,80.8561523 61.091704,80.4176225 60.8499887,79.6400927 C60.5948033,78.8685497 60.1443,77.7692318 59.6062404,76.3548609 C58.5121609,73.5350993 57.0072404,69.4843113 55.2411477,64.6118411 C54.8954126,63.6389934 54.5354589,62.6257351 54.1672735,61.5915232 C54.174757,61.5301589 54.1897238,61.4710397 54.1919689,61.4081788 C54.2211543,60.6860265 53.9278033,60.0304768 53.4473662,59.5642583 C52.1617106,55.9482583 50.7690417,52.0314238 49.3090219,47.9222649 C48.1805185,44.878 47.1111344,41.6997815 45.9639225,38.4631921 C45.3906907,36.8430265 44.8077305,35.2086424 44.1686444,33.5525563 C43.4891477,31.8792583 42.9308828,30.2688212 41.7088364,28.3844901 C41.364598,27.9175232 41.0226046,27.3592583 40.0445185,26.774053 C39.9173,26.704457 39.7983132,26.6400993 39.6606179,26.5802318 C39.4907437,26.5211126 39.3133861,26.4709735 39.1345318,26.4313113 C38.785055,26.3400132 38.4019026,26.3415099 38.0127636,26.4006291 C37.2689093,26.5136291 36.7136377,26.8803179 36.3866113,27.156457 C35.6801742,27.7611192 35.3830815,28.2699934 35.0874854,28.7444437 C34.8023662,29.2211391 34.5875914,29.666404 34.3795517,30.1094238 C33.5975318,31.8568079 33.0385185,33.5181325 32.4922272,35.1742185 C31.4153596,38.4766623 30.490406,41.7110066 29.5684457,44.8360927 C28.0380815,50.076 26.5885384,55.000106 25.2602272,59.3846556 C23.4761742,59.4976556 21.8051212,59.6181391 20.3451013,59.7558344 C18.6022073,59.930947 17.1459291,59.9900662 16.1341675,60.246 C15.122406,60.4839735 14.5506709,60.7922914 14.5506709,60.7922914 C14.2498364,60.9539338 13.9961477,61.2113642 13.8404921,61.5451258 C13.4565914,62.3675563 13.8113066,63.3463907 14.6322404,63.7317881 L14.6576841,63.7437616 C14.6576841,63.7437616 15.2511212,64.0213974 16.278598,64.2069868 C17.3075715,64.4097881 18.764598,64.3933245 20.5179689,64.4786358 C21.4870748,64.5197947 22.5519689,64.5474834 23.6744854,64.5684371 C22.5153,68.334106 21.5319755,71.5138212 20.9430285,73.9070265 C20.570353,75.3775232 20.2620351,76.5359603 20.1737305,77.3643775 C20.0704589,78.1883046 20.0959026,78.6545232 20.0959026,78.6545232 C20.1108695,78.9059669 20.2238695,79.1544172 20.4296642,79.3302781 C20.8307768,79.6722715 21.4324457,79.6243775 21.7736907,79.2225166 C21.7736907,79.2225166 22.0760219,78.8663046 22.4921013,78.1486424 C22.9209026,77.4339735 23.3826311,76.3339073 23.962598,74.9210331 C25.0267437,72.4140795 26.2443,68.8661788 27.6422073,64.6155828 C29.4936113,64.6283046 31.4220947,64.6342914 33.3558166,64.6447682 C35.6899026,64.6672185 38.0217437,64.6185762 40.2046642,64.5093179 C42.3875848,64.3843444 44.4245781,64.268351 46.1712139,64.1680728 C47.7270219,64.0715364 49.048598,63.975 50.0386576,63.8971722 C50.3537106,64.6993974 50.6650219,65.4881523 50.9651079,66.2514636 C52.9108033,71.1067219 54.6514523,75.1028808 55.869757,77.8986954 C56.4781609,79.2966026 56.958598,80.3936755 57.3290285,81.1240596 C57.7151742,81.8469603 57.9770947,82.2091589 57.9770947,82.2091589 C58.360247,82.7389868 59.0232801,83.0375762 59.7102603,82.9208344 C60.6778695,82.7576954 61.3304258,81.8394768 61.1672868,80.8696225 L61.1650417,80.8561523 Z M92.4692596,68.0670967 L92.4662662,68.0955338 L92.4565377,68.1943152 L92.4370808,68.3926265 L92.3974185,68.7847589 C92.3764649,68.8311563 92.359253,68.8775536 92.3457828,68.923951 C92.3323126,68.9703483 92.3225841,69.017494 92.3165974,69.0661364 L92.2335311,69.3078517 C92.1803987,69.4709907 92.1362464,69.6348781 92.0494384,69.8002623 C91.4896768,71.136057 90.4247828,72.3738185 89.2079748,73.2957788 C87.9642265,74.2162424 86.5356371,74.8658053 85.0681338,75.2946066 C83.6051205,75.7668119 82.0919682,75.8977722 80.6573921,75.9815868 C79.8297232,76.0167589 79.1292728,76.0182556 78.4909351,76.0130172 C77.8473589,75.9875735 77.2075245,76.0002954 76.6530013,75.9284543 C76.6387828,74.643547 76.6133391,73.0144013 76.5661934,71.1300702 C76.5422464,68.7615603 76.4247563,66.0016662 76.3529152,63.0412159 C76.2728424,60.8904742 76.1890278,58.6342159 76.1044649,56.3502689 C76.406796,56.2350238 76.7203523,56.1295073 77.0488755,56.0382093 C78.414604,55.6490702 80.0257894,55.4799444 81.7529682,55.4866795 C83.4382397,55.5016464 85.2290278,55.7530901 86.8866106,56.4348318 C87.6903325,56.830706 88.4124848,57.421898 88.9378225,58.169494 L89.6869152,59.2725536 C89.9465907,59.612302 90.2062662,59.9498053 90.4457364,60.3045205 C91.3789219,61.7420901 91.9828358,63.4370901 92.2657099,65.2001894 C92.3974185,66.0824874 92.4909616,66.9760106 92.4737497,67.8575603 L92.4692596,68.0670967 Z M74.3181669,30.2974079 C74.3181669,30.2974079 74.3286437,30.2495139 74.3308887,30.2921695 L74.3301404,30.3655073 L74.327147,30.4021762 L74.2979616,30.5488517 C74.2500675,30.7696132 74.1535311,30.9252689 74.0360411,31.0517391 C74.1116238,30.8826132 74.1894517,30.6850503 74.2620411,30.4635404 C74.2800013,30.4089113 74.2979616,30.3310834 74.3181669,30.2974079 L74.3181669,30.2974079 Z M98.0855841,67.7034013 C98.009253,66.4611497 97.8386305,65.2278781 97.5101073,64.0275338 C96.8702728,61.6305868 95.7140808,59.3286795 94.0572464,57.4563219 C93.6366768,56.9960901 93.2131139,56.5403483 92.7229483,56.1609377 C92.2365245,55.7792821 91.6760146,55.4926662 91.1222397,55.2457126 C90.0057099,54.7570437 88.9430609,54.349196 87.9043589,53.9802623 C85.8666172,53.1413682 83.7854715,52.7492358 81.8210675,52.6811364 C79.8955775,52.6115404 78.0269616,52.7178053 76.3005311,53.1383748 C76.1927695,53.1638185 76.0939881,53.2004874 75.9884715,53.2289245 C75.8919351,50.2512623 75.6966172,47.2855735 75.5596702,44.4935007 C75.4152397,41.532302 75.2565907,38.7694146 75.1001868,36.3994079 C74.957253,34.0264079 74.6826106,32.064249 74.4895377,30.6588583 C74.4543656,30.4687788 74.4206901,30.2884278 74.3892596,30.119302 L74.372796,30.0339907 C74.3675576,29.9995669 74.3383722,29.8147258 74.3091868,29.7181894 C76.2885576,30.6027325 71.5492927,27.4297523 71.0531404,29.7039709 C70.9947695,29.9696331 71.0351801,29.7960172 71.0217099,29.8641166 L71.0164715,29.9284742 L71.0112331,30.0564411 C71.0104848,30.1357656 71.0164715,30.1230437 71.0194649,30.1604609 C71.0329351,30.2712159 71.050147,30.3325801 71.0651139,30.4119046 C71.1025311,30.5548384 71.1429417,30.6828053 71.1841007,30.7987987 C71.1002861,30.7553947 71.0247033,30.7142358 70.9551073,30.6730768 C70.9498689,30.7164808 70.9453788,30.7553947 70.9401404,30.799547 C70.8503391,32.1615338 70.6804649,34.1543748 70.6752265,36.5258781 C70.6535245,38.9018715 70.6542728,41.6744874 70.6939351,44.6446662 C70.7313523,47.614845 70.7246172,50.7863285 70.8623126,53.9525735 C70.8840146,54.525057 70.9034715,55.0960437 70.9236768,55.6670305 C70.1566238,56.2073351 69.5100543,56.7132159 68.9719947,57.1472556 C67.5232,58.328143 66.6955311,59.0024013 66.6955311,59.0024013 L66.684306,59.0113815 C66.6558689,59.0353285 66.6266834,59.0607722 66.5989947,59.0862159 C65.8835775,59.7544874 65.8431669,60.877004 66.5091934,61.5946662 C67.1759682,62.3115801 68.2962397,62.3519907 69.011657,61.6844675 C69.011657,61.6844675 69.7622464,60.9840172 71.0725974,59.7612225 C71.1189947,60.9466 71.1706305,62.1207523 71.2394781,63.2589841 C71.4175841,66.2269179 71.5575245,68.9995338 71.771551,71.3717854 C71.8740742,72.7382623 71.9810874,73.9670437 72.0821139,75.0326861 C72.0087762,75.0079907 71.9309483,74.9832954 71.8673391,74.9578517 C71.4250675,74.8186596 71.1893391,74.7445735 71.1893391,74.7445735 L71.0299417,74.6936861 C70.3826238,74.4901364 69.650743,74.7094013 69.2279285,75.2886199 C68.6973523,76.0167589 68.855253,77.038249 69.5818954,77.5703219 C69.5818954,77.5703219 69.8176238,77.7431894 70.259147,78.0664742 C70.6991735,78.392004 71.3861536,78.8350238 72.3275709,79.3027391 C72.403902,79.3386596 72.492955,79.3760768 72.5730278,79.4127457 C72.7616106,80.3601497 73.5862861,81.0852954 74.5868225,81.0905338 C75.1203921,81.0927788 75.6030742,80.8877325 75.9720079,80.5569642 C76.6717099,80.7223483 77.3908689,80.8173881 78.1706437,80.9214079 C78.984094,81.0029775 79.8117629,81.0703285 80.5803126,81.1069974 C82.3291934,81.1691099 84.3040742,81.1728517 86.391955,80.7148649 C88.4693589,80.2733417 90.6679947,79.4127457 92.6541007,77.9729311 C94.6065311,76.5039311 96.3905841,74.5290503 97.379147,71.9450172 C97.5168424,71.633706 97.6171205,71.2917126 97.715902,70.9504675 L97.8618291,70.4356066 L97.9800675,69.7987656 L98.0758556,69.1589311 L98.0908225,68.7585669 L98.1065377,68.1703682 L98.0855841,67.7034013 Z" id="Fill-10" fill="#0065B8"></path>
        </g>
    </g>
</svg>