<?xml version="1.0" encoding="UTF-8" standalone="no"?>
<svg width="24px" height="24px" viewBox="0 0 24 24" version="1.1" xmlns="http://www.w3.org/2000/svg" xmlns:xlink="http://www.w3.org/1999/xlink">
    <!-- Generator: Sketch 3.8.3 (29802) - http://www.bohemiancoding.com/sketch -->
    <title>ui/info</title>
    <desc>Created with Sketch.</desc>
    <defs></defs>
    <g id="ui" stroke="none" stroke-width="1" fill="none" fill-rule="evenodd">
        <g id="ui/info" fill="#1A9FFF">
            <path d="M12,22 C17.5228475,22 22,17.5228475 22,12 C22,6.4771525 17.5228475,2 12,2 C6.4771525,2 2,6.4771525 2,12 C2,17.5228475 6.4771525,22 12,22 Z M13.348877,11.5474243 C13.6243896,10.4058228 13.2317755,9.99902919 12.6967163,10.0059204 C11.7394409,10.0182495 9.18768311,11.0681763 9.18487549,12.1290894 C9.18206787,13.1900024 11.3557129,11.4411621 11.2329712,12.0068359 C11.1102295,12.5725098 10.3305664,15.5236816 10.1895142,16.1664429 C10.0484619,16.8092041 10.0393066,17.6408691 11.0393066,17.6408691 C12.0393066,17.6408691 14.7144964,15.7527775 14.5393066,15.1408691 C14.326416,14.3972778 12.4581909,15.8109741 12.4581909,15.3109741 C12.4581909,14.989335 12.7450562,13.9993896 13.348877,11.5474243 Z M12.65,8.89999843 C13.4231986,8.89999843 14.05,8.27319709 14.05,7.49999845 C14.05,6.72679981 13.4231986,6.09999847 12.65,6.09999847 C11.8768013,6.09999847 11.25,6.72679981 11.25,7.49999845 C11.25,8.27319709 11.8768013,8.89999843 12.65,8.89999843 Z" id="shape"></path>
        </g>
    </g>
</svg>
