<svg data-v-2dbdadd1="" height="24" viewBox="0 0 108 24" width="108" xmlns="http://www.w3.org/2000/svg">
	<title>MyScript</title>
	<g fill="none">
		<g>
			<path d="M24 0h83.25v24h-83.25z"></path>
			<g fill="#000" fill-rule="nonzero">
				<path
					d="M45.575 18l-.75-10.225-3.525 10.225h-2.35l-3.55-10.225-.725 10.225h-2.4l1.075-14h3.4l3.55 10.575 3.525-10.575h3.35l1.075 14zM54.275 18.525c-.875 2.425-2 3.175-3.875 3.175-.425 0-.675-.05-.9-.1l-.325-2c.325.075.675.15 1.125.15.7 0 1.275-.325 1.575-1.025l.225-.65-3.55-9.65 2.525-.325 2.275 6.975 2.2-6.85h2.425l-3.7 10.3zM62.85 18.15c-1.7 0-3.175-.375-4.4-.975l.4-2.45c1.175.7 2.65 1.225 4.05 1.225 1.25 0 2.1-.6 2.1-1.7 0-1.025-.475-1.45-2.525-2.325-2.725-1.125-3.825-2-3.825-4.175 0-2.475 1.9-3.925 4.525-3.925 1.575 0 2.675.325 3.7.85l-.4 2.425c-1.025-.675-2.2-1.1-3.3-1.1-1.35 0-1.925.65-1.925 1.5 0 .9.45 1.325 2.4 2.125 2.875 1.175 3.925 2.175 3.925 4.35-.025 2.775-2.025 4.175-4.725 4.175M72.95 18.175c-2.725 0-4.65-1.825-4.65-5.025 0-3.4 2.125-5.15 4.725-5.15 1.325 0 2.3.35 3.075.825l-.35 2.2c-.825-.625-1.625-.925-2.575-.925-1.4 0-2.425 1.025-2.425 2.975 0 2.025 1.1 3 2.575 3 .85 0 1.625-.225 2.525-.925l.325 2.075c-.975.7-2 .95-3.225.95M79.7 12.375v5.625h-2.425v-9.8h2.075l.3 1.975c.65-1.125 1.625-2.1 3.15-2.175l.375 2.425c-1.525.1-2.775.9-3.475 1.95"
					id="Shape"></path>
				<path
					d="M85.1 6.55c-.8 0-1.45-.575-1.45-1.375 0-.825.65-1.425 1.45-1.425.8 0 1.45.6 1.45 1.425 0 .825-.65 1.375-1.45 1.375zm-1.225 1.65h2.425v9.8h-2.425v-9.8zM92.65 18.1c-.925 0-1.675-.15-2.275-.375v3.7l-2.425.375v-13.6h2.075l.225 1.35c.7-.8 1.65-1.55 3-1.55 2.05 0 3.7 1.55 3.7 4.825-.025 3.65-2.05 5.275-4.3 5.275m-.075-7.95c-.875 0-1.55.55-2.2 1.375v4.2c.6.275 1.05.425 1.9.425 1.25 0 2.2-1.025 2.2-3.175 0-1.9-.8-2.825-1.9-2.825M101.8 18.15c-1.925 0-3.225-.7-3.225-2.95v-5h-1.375v-2h1.375v-3.1l2.4-.375v3.475h2l.3 2h-2.325v4.625c0 .8.375 1.225 1.3 1.225.275 0 .55-.025.775-.075l.3 2.05c-.35.05-.8.125-1.525.125"
					id="Shape"></path>
				<path
					d="M105.5 18.575c-.8 0-1.35-.55-1.35-1.375s.55-1.375 1.35-1.375 1.35.55 1.35 1.375c0 .8-.575 1.375-1.35 1.375zm0-2.6c-.65 0-1.15.45-1.15 1.225 0 .775.5 1.2 1.15 1.2.65 0 1.15-.45 1.15-1.2 0-.8-.525-1.225-1.15-1.225zm.35 1.95l-.4-.6h-.1v.575h-.35v-1.525h.525c.35 0 .55.175.55.45 0 .225-.1.35-.3.425l.4.6-.325.075zm-.375-1.275h-.15v.425h.15c.15 0 .25-.075.25-.225 0-.125-.075-.2-.25-.2z"></path>
			</g>
		</g>
		<g fill-rule="nonzero">
			<path d="M0 0v20.6c0 1.85 1.5 3.4 3.4 3.4h20.6v-20.6c0-1.9-1.5-3.4-3.4-3.4h-20.6z" fill="#1a9fff"></path>
			<path d="M21 18h3v3h-3z" fill="#fff"></path>
			<path
				d="M14.307 18l2.547-8.67c.2-.591.45-1.182.549-1.626 0 .542.05 1.232.1 1.823l.599 8.473h2.897l-1.299-13.794h-3.996l-2.198 7.833c-.2.64-.3 1.281-.4 1.773-.15-.591-.25-1.182-.35-1.773-.25-1.675-.799-4.729-1.399-6.946-.25-1.084-1.648-1.379-2.497-1.035-.649.296-.999 1.035-1.149 1.626-.3.985-.549 1.971-.799 2.956l-.649 3.104c-.05.246-.15.69-.4.69-.2 0-.2-.985-.2-1.33 0-1.084-.1-2.562-.25-3.645-.2-1.182-.499-2.562-2.098-2.365-.45.049-1.199.345-1.049.788.15.64.35 1.379.45 2.069.45 2.463.799 6.798.999 9.064.1.985 1.149 1.429 2.148.985.499-.197.799-.788.999-1.232.999-2.66 1.698-5.468 2.497-8.178 0-.049.1-.394.25-.394.45 0 1.049 6.355 1.149 6.995.2.887.45 2.562 1.548 2.808h1.9979999999999998z"
				fill="#fff"></path>
		</g>
	</g>
</svg>