<?xml version="1.0" encoding="UTF-8" standalone="no"?>
<svg width="144px" height="32px" viewBox="0 0 144 32" version="1.1" xmlns="http://www.w3.org/2000/svg" xmlns:xlink="http://www.w3.org/1999/xlink" xmlns:sketch="http://www.bohemiancoding.com/sketch/ns">
    <!-- Generator: Sketch 3.4.4 (17249) - http://www.bohemiancoding.com/sketch -->
    <title>MyScript</title>
    <desc>Created with Sketch.</desc>
    <defs>
        <linearGradient x1="0.006261%" y1="0.0769727083%" x2="100.006263%" y2="100.076974%" id="linearGradient-1">
            <stop stop-color="#00ACC8" offset="0%"></stop>
            <stop stop-color="#00A7C2" offset="18.53%"></stop>
            <stop stop-color="#0098B1" offset="43.43%"></stop>
            <stop stop-color="#007F95" offset="71.82%"></stop>
            <stop stop-color="#006072" offset="100%"></stop>
        </linearGradient>
    </defs>
    <g id="Page-1" stroke="none" stroke-width="1" fill="none" fill-rule="evenodd" sketch:type="MSPage">
        <g id="MyScript" sketch:type="MSLayerGroup">
            <g id="logo" sketch:type="MSShapeGroup">
                <g id="Group">
                    <g id="logo-typo" transform="translate(42.666667, 4.000000)" fill="#000000">
                        <g id="typo-myscript">
                            <path d="M18.0666667,19.6 L17,5.8 L12.2666667,19.6666667 L9.13333333,19.6666667 L4.33333333,5.8 L3.4,19.6 L0.133333333,19.6 L1.6,0.733333333 L6.2,0.733333333 L10.9333333,14.9333333 L15.7333333,0.733333333 L20.2,0.733333333 L21.6666667,19.6 L18.0666667,19.6 Z" id="M"></path>
                            <path d="M29.7333333,20.2666667 C28.6,23.5333333 27.0666667,24.5333333 24.5333333,24.5333333 C24,24.5333333 23.6666667,24.4666667 23.3333333,24.4 L22.9333333,21.7333333 C23.3333333,21.8 23.8,21.9333333 24.4666667,21.9333333 C25.4,21.9333333 26.2,21.5333333 26.6,20.5333333 L26.8666667,19.6666667 L22.0666667,6.6 L25.4666667,6.2 L28.5333333,15.6 L31.4666667,6.4 L34.7333333,6.4 L29.7333333,20.2666667 L29.7333333,20.2666667 Z" id="y"></path>
                            <path d="M41.2666667,19.8 C39,19.8 37,19.2666667 35.3333333,18.5333333 L35.8666667,15.2666667 C37.4666667,16.2 39.4,16.9333333 41.3333333,16.9333333 C43,16.9333333 44.1333333,16.1333333 44.1333333,14.6666667 C44.1333333,13.2666667 43.4666667,12.7333333 40.7333333,11.5333333 C37.0666667,10.0666667 35.6,8.86666667 35.6,5.93333333 C35.6,2.6 38.1333333,0.666666667 41.6666667,0.666666667 C43.8,0.666666667 45.2666667,1.06666667 46.6666667,1.8 L46.1333333,5.06666667 C44.8,4.2 43.1333333,3.6 41.6666667,3.6 C39.8666667,3.6 39.0666667,4.46666667 39.0666667,5.6 C39.0666667,6.8 39.6666667,7.33333333 42.2666667,8.46666667 C46.1333333,10.0666667 47.6,11.4 47.6,14.3333333 C47.6666667,17.8666667 44.9333333,19.8 41.2666667,19.8" id="S"></path>
                            <path d="M54.8666667,19.8666667 C51.2,19.8666667 48.6,17.4 48.6,13.0666667 C48.6,8.46666667 51.4666667,6.13333333 55,6.13333333 C56.7333333,6.13333333 58.0666667,6.6 59.1333333,7.26666667 L58.6666667,10.2 C57.5333333,9.4 56.4666667,9 55.2,9 C53.3333333,9 51.9333333,10.4 51.9333333,13 C51.9333333,15.7333333 53.4,17.0666667 55.4,17.0666667 C56.5333333,17.0666667 57.6,16.8 58.8,15.8 L59.2,18.6 C57.8666667,19.4666667 56.5333333,19.8666667 54.8666667,19.8666667" id="c"></path>
                            <path d="M64,12 L64,19.6 L60.6666667,19.6 L60.6666667,6.4 L63.4666667,6.4 L63.8666667,9.06666667 C64.7333333,7.53333333 66.0666667,6.26666667 68.0666667,6.13333333 L68.6,9.4 C66.6,9.53333333 64.8666667,10.6 64,12" id="r"></path>
                            <path d="M71.2666667,4.13333333 C70.2,4.13333333 69.3333333,3.4 69.3333333,2.26666667 C69.3333333,1.13333333 70.2,0.333333333 71.2666667,0.333333333 C72.3333333,0.333333333 73.2,1.13333333 73.2,2.26666667 C73.1333333,3.4 72.2666667,4.13333333 71.2666667,4.13333333 L71.2666667,4.13333333 Z M69.6,6.4 L72.8666667,6.4 L72.8666667,19.6 L69.6,19.6 L69.6,6.4 L69.6,6.4 Z" id="i"></path>
                            <path d="M81.4,19.7333333 C80.1333333,19.7333333 79.1333333,19.5333333 78.3333333,19.2 L78.3333333,24.2 L75.0666667,24.6666667 L75.0666667,6.4 L77.8666667,6.4 L78.1333333,8.2 C79.0666667,7.13333333 80.3333333,6.13333333 82.2,6.13333333 C84.9333333,6.13333333 87.2,8.2 87.2,12.6666667 C87.1333333,17.5333333 84.4,19.7333333 81.4,19.7333333 M81.2666667,9 C80.1333333,9 79.2,9.73333333 78.2666667,10.8666667 L78.2666667,16.5333333 C79.0666667,16.9333333 79.6666667,17.0666667 80.8,17.0666667 C82.4666667,17.0666667 83.8,15.6666667 83.8,12.8 C83.8666667,10.2666667 82.7333333,9 81.2666667,9" id="p"></path>
                            <path d="M93.7333333,19.8 C91.1333333,19.8 89.4,18.8666667 89.4,15.8666667 L89.4,9.06666667 L87.5333333,9.06666667 L87.5333333,6.4 L89.4,6.4 L89.4,2.2 L92.6,1.73333333 L92.6,6.4 L95.2666667,6.4 L95.6666667,9.06666667 L92.5333333,9.06666667 L92.5333333,15.3333333 C92.5333333,16.4 93,16.9333333 94.2666667,16.9333333 C94.6666667,16.9333333 95,16.9333333 95.2666667,16.8666667 L95.6666667,19.6 C95.2666667,19.6666667 94.6666667,19.8 93.7333333,19.8" id="t"></path>
                            <path d="M98.6666667,20.3333333 C97.6,20.3333333 96.8666667,19.6 96.8666667,18.4666667 C96.8666667,17.4 97.6,16.6 98.6666667,16.6 C99.7333333,16.6 100.466667,17.3333333 100.466667,18.4666667 C100.466667,19.6 99.7333333,20.3333333 98.6666667,20.3333333 L98.6666667,20.3333333 Z M98.6666667,16.8666667 C97.8,16.8666667 97.1333333,17.4666667 97.1333333,18.4666667 C97.1333333,19.4666667 97.8,20.0666667 98.6666667,20.0666667 C99.5333333,20.0666667 100.2,19.4666667 100.2,18.4666667 C100.2,17.4666667 99.5333333,16.8666667 98.6666667,16.8666667 L98.6666667,16.8666667 Z M99.1333333,19.4666667 L98.6,18.6666667 L98.4666667,18.6666667 L98.4666667,19.4666667 L98,19.4666667 L98,17.4 L98.6666667,17.4 C99.1333333,17.4 99.4,17.6 99.4,18 C99.4,18.2666667 99.2666667,18.4666667 99,18.5333333 L99.5333333,19.3333333 L99.1333333,19.4666667 L99.1333333,19.4666667 Z M98.6666667,17.8 L98.4666667,17.8 L98.4666667,18.4 L98.6666667,18.4 C98.8666667,18.4 99,18.3333333 99,18.1333333 C99,17.8666667 98.8666667,17.8 98.6666667,17.8 L98.6666667,17.8 Z" id="_xAE_"></path>
                        </g>
                    </g>
                    <g id="logo-icon">
                        <path d="M27.329802,0 C29.9090811,0 32,2.0872655 32,4.67019805 L32,32 L4.67019805,32 C2.09091889,32 0,29.9127345 0,27.329802 L0,0 L27.329802,0 Z" id="Rectangle-45" fill="url(#linearGradient-1)"></path>
                        <g id="squares" transform="translate(0.000000, 12.000000)">
                            <rect id="Rectangle-46" fill="#005060" x="28" y="16" width="4" height="4"></rect>
                            <rect id="Rectangle-46-Copy" fill="#006A7D" x="24" y="16" width="4" height="4"></rect>
                            <rect id="Rectangle-46-Copy-2" fill="#006577" x="20" y="16" width="4" height="4"></rect>
                            <rect id="Rectangle-46-Copy-3" fill="#005D6F" x="16" y="16" width="4" height="4"></rect>
                            <rect id="Rectangle-46-Copy-4" fill="#00798F" x="12" y="16" width="4" height="4"></rect>
                            <rect id="Rectangle-46-Copy-5" fill="#007488" x="8" y="16" width="4" height="4"></rect>
                            <rect id="Rectangle-46-Copy-6" fill="#006B7F" x="4" y="16" width="4" height="4"></rect>
                            <rect id="Rectangle-46-Copy-7" fill="#00596A" x="24" y="12" width="4" height="4"></rect>
                            <rect id="Rectangle-46-Copy-8" fill="#007286" x="20" y="12" width="4" height="4"></rect>
                            <rect id="Rectangle-46-Copy-9" fill="#006C7F" x="16" y="12" width="4" height="4"></rect>
                            <rect id="Rectangle-46-Copy-10" fill="#00667A" x="12" y="12" width="4" height="4"></rect>
                            <rect id="Rectangle-46-Copy-11" fill="#007F95" x="8" y="12" width="4" height="4"></rect>
                            <rect id="Rectangle-46-Copy-12" fill="#005A6C" x="28" y="8" width="4" height="4"></rect>
                            <rect id="Rectangle-46-Copy-13" fill="#006F82" x="20" y="8" width="4" height="4"></rect>
                            <rect id="Rectangle-46-Copy-14" fill="#007F96" x="12" y="8" width="4" height="4"></rect>
                            <rect id="Rectangle-46-Copy-15" fill="#008CA4" x="0" y="8" width="4" height="4"></rect>
                            <rect id="Rectangle-46-Copy-16" fill="#00697C" x="28" y="4" width="4" height="4"></rect>
                            <rect id="Rectangle-46-Copy-17" fill="#006F82" x="24" y="4" width="4" height="4"></rect>
                            <rect id="Rectangle-46-Copy-18" fill="#007D93" x="20" y="4" width="4" height="4"></rect>
                            <rect id="Rectangle-46-Copy-19" fill="#0089A1" x="8" y="4" width="4" height="4"></rect>
                            <rect id="Rectangle-46-Copy-20" fill="#00788D" x="28" y="0" width="4" height="4"></rect>
                        </g>
                        <rect id="pix" fill="#CFDE00" x="28" y="24" width="4" height="4"></rect>
                        <path d="M22.3298738,11.9961754 C22.5298738,11.1961754 22.9298738,10.3295087 23.0632071,9.72950869 C23.0632071,10.462842 23.1298738,11.3961754 23.1965404,12.1961754 L23.9965404,23.9961754 L27.9965404,23.9961754 L26.2632071,4.86284203 L20.7965404,4.86284203 L17.7965404,15.662842 C17.5965404,16.5961754 17.3965404,17.462842 17.2632071,18.062842 C17.0632071,17.262842 16.9298738,16.3961754 16.7965404,15.5961754 C16.4632071,13.262842 15.7298738,9.06284203 14.8632071,5.99617536 C14.5298738,4.46284203 12.5965404,4.06284203 11.4632071,4.59617536 C10.5965404,4.92950869 10.1298738,5.99617536 9.86320709,6.86284203 C9.46320709,8.19617536 9.12987376,9.52950869 8.79654042,10.9295087 C8.52987376,12.1961754 8.19654042,13.9295087 7.92987376,15.1961754 C7.86320709,15.5295087 7.72987376,16.1295087 7.39654042,16.1295087 C7.12987376,16.1295087 7.12987376,14.7295087 7.12987376,14.3295087 C7.12987376,12.862842 7.06320709,10.7961754 6.79654042,9.32950869 C6.46320709,7.66284203 5.99654042,5.72950869 3.86320709,5.99617536 C3.26320709,6.06284203 2.26320709,6.46284203 2.39654042,7.06284203 C2.59654042,7.92950869 2.86320709,8.99617536 2.99654042,9.92950869 C3.59654042,13.462842 4.06320709,19.462842 4.32987376,22.5295087 C4.39654042,23.862842 5.86320709,24.5295087 7.26320709,23.9295087 C7.92987376,23.662842 8.39654042,22.7961754 8.59654042,22.1961754 C9.99654042,18.5295087 10.8632071,14.5961754 11.9965404,10.862842 C11.9965404,10.7961754 12.1298738,10.3295087 12.2632071,10.3295087 C12.8632071,10.3295087 13.6632071,19.1295087 13.8632071,19.9961754 C14.0632071,21.262842 14.4632071,23.5295087 15.9298738,23.862842 C16.1965404,23.9295087 16.5965404,23.9295087 16.9298738,23.9295087 C17.0632071,23.9961754 18.8632071,23.9961754 18.8632071,23.9961754 L22.3298738,11.9961754 Z" id="m" fill="#FFFFFF"></path>
                    </g>
                </g>
            </g>
        </g>
    </g>
</svg>