<?xml version="1.0" encoding="utf-8"?>
<!DOCTYPE svg PUBLIC "-//W3C//DTD SVG 1.1//EN" "http://www.w3.org/Graphics/SVG/1.1/DTD/svg11.dtd">
<svg width="255px" height="114px"  version="1.1" id="Layer_1" xmlns="http://www.w3.org/2000/svg" xmlns:xlink="http://www.w3.org/1999/xlink" x="0px" y="0px"
	 viewBox="0 0 510.2 226.8" enable-background="new 0 0 510.2 226.8" xml:space="preserve">
<g>
	<path fill="#5B6670" d="M48.2,58.3h-3.9v15h-5v-37H49c7.8,0,12.5,3.8,12.5,10.7C61.6,54.6,56.2,58.3,48.2,58.3z M48.7,40.8h-4.5
		v13.1h4.2c5,0,8-2.1,8-6.7C56.5,43,53.8,40.8,48.7,40.8z"/>
	<path fill="#5B6670" d="M77.5,73.9c-6.8,0-11.7-4.9-11.7-13.3c0-8.4,4.9-13.3,11.7-13.3c6.9,0,11.9,4.9,11.9,13.3
		C89.4,69,84.4,73.9,77.5,73.9z M77.5,51.3c-4.6,0-6.9,4-6.9,9.3c0,5.3,2.4,9.3,6.9,9.3c4.7,0,7.1-4,7.1-9.3
		C84.6,55.3,82.1,51.3,77.5,51.3z"/>
	<path fill="#5B6670" d="M118.2,73.3h-3.8L108.6,54l-5.8,19.3H99l-8.3-25.2l4.6-0.8l5.6,18.9l5.7-18.5h4l5.7,18.5l5.5-18.5h4.7
		L118.2,73.3z"/>
	<path fill="#5B6670" d="M152.4,61.1H135c0.2,5.9,3,8.7,7.4,8.7c3.7,0,6.4-1.4,9.2-3.6l0.7,4.3c-2.7,2.1-6,3.4-10.2,3.4
		c-6.6,0-11.8-4-11.8-13.4c0-8.2,4.8-13.2,11.3-13.2c7.4,0,10.9,5.7,10.9,12.8C152.4,60.3,152.4,60.8,152.4,61.1z M141.5,51
		c-2.9,0-5.5,2.1-6.2,6.5h12.3C147,53.4,145.2,51,141.5,51z"/>
	<path fill="#5B6670" d="M162.4,58.2v15.1h-4.8V47.8h3.8l0.8,5.2c1.8-2.9,4.8-5.5,8.9-5.7l0.8,4.6C167.7,52,164.1,54.9,162.4,58.2z"
		/>
	<path fill="#5B6670" d="M196.6,61.1h-17.4c0.2,5.9,3,8.7,7.4,8.7c3.7,0,6.4-1.4,9.2-3.6l0.7,4.3c-2.7,2.1-6,3.4-10.2,3.4
		c-6.6,0-11.8-4-11.8-13.4c0-8.2,4.8-13.2,11.3-13.2c7.4,0,10.9,5.7,10.9,12.8C196.6,60.3,196.6,60.8,196.6,61.1z M185.7,51
		c-2.9,0-5.5,2.1-6.2,6.5h12.3C191.2,53.4,189.4,51,185.7,51z"/>
	<path fill="#5B6670" d="M220.2,73.3l-0.6-3.7c-1.9,2.3-4.6,4.2-8.3,4.2c-5.5,0-10.1-4-10.1-12.6c0-9.3,5.4-13.8,11.6-13.8
		c2.5,0,4.8,0.5,6.4,1.1V35.4l4.8-0.7v38.7H220.2z M219.2,52.9c-2-1-3.5-1.4-6.3-1.4c-4,0-6.9,3.3-6.9,9.6c0,5.6,2.5,8.6,5.9,8.6
		c2.9,0,5.2-1.8,7.2-4.5V52.9z"/>
	<path fill="#5B6670" d="M253.2,73.7c-3.9,0-6.6-0.6-10-1.6V35.4l4.8-0.7v16.1c1.7-1.8,4.2-3.5,7.7-3.5c5.5,0,10.1,4.1,10.1,12.6
		C265.8,69.2,260.6,73.7,253.2,73.7z M255,51.5c-2.7,0-5,1.8-7,4.2v13.1c1.6,0.6,2.8,0.9,5.1,0.9c5,0,7.8-2.9,7.8-9.5
		C260.9,54.5,258.4,51.5,255,51.5z"/>
	<path fill="#5B6670" d="M282.4,75.6c-2.2,5.9-4.9,7.5-9.2,7.5c-0.6,0-1.2-0.1-1.7-0.2l-0.6-4.2c0.8,0.2,1.8,0.4,2.7,0.4
		c2,0,3.3-1,4.1-3l1-2.6l-9.3-25.3l4.7-0.8l7,20.4l6.8-20h4.9L282.4,75.6z"/>
</g>
<g>
	<g id="logo-typo">
		<g id="typo-myscript">
			<polygon id="M" points="222.4,167.2 219.2,125.5 204.9,167.4 195.5,167.4 181,125.5 178.2,167.2 168.3,167.2 172.8,110.2
				186.6,110.2 200.9,153.1 215.4,110.2 228.9,110.2 233.3,167.2 			"/>
			<path id="y" d="M257.6,169.2c-3.4,9.9-8,12.9-15.7,12.9c-1.6,0-2.6-0.2-3.6-0.4l-1.2-8c1.2,0.2,2.6,0.6,4.6,0.6
				c2.8,0,5.2-1.2,6.4-4.2l0.8-2.6l-14.5-39.4l10.3-1.2l9.3,28.4l8.8-27.8h9.9L257.6,169.2z"/>
			<path id="S" d="M292.4,167.8c-6.8,0-12.9-1.6-17.9-3.8l1.6-9.9c4.8,2.8,10.7,5,16.5,5c5,0,8.4-2.4,8.4-6.8c0-4.2-2-5.8-10.3-9.5
				c-11.1-4.4-15.5-8-15.5-16.9c0-10.1,7.6-15.9,18.3-15.9c6.4,0,10.9,1.2,15.1,3.4l-1.6,9.9c-4-2.6-9.1-4.4-13.5-4.4
				c-5.4,0-7.8,2.6-7.8,6c0,3.6,1.8,5.2,9.7,8.6c11.7,4.8,16.1,8.8,16.1,17.7C311.7,161.9,303.5,167.8,292.4,167.8"/>
			<path id="c" d="M333.5,168c-11.1,0-18.9-7.4-18.9-20.5c0-13.9,8.6-20.9,19.3-20.9c5.2,0,9.3,1.4,12.5,3.4l-1.4,8.8
				c-3.4-2.4-6.6-3.6-10.5-3.6c-5.6,0-9.9,4.2-9.9,12.1c0,8.2,4.4,12.3,10.5,12.3c3.4,0,6.6-0.8,10.3-3.8l1.2,8.4
				C342.5,166.8,338.5,168,333.5,168"/>
			<path id="r" d="M361,144.2v22.9H351v-39.8h8.4l1.2,8c2.6-4.6,6.6-8.4,12.7-8.8l1.6,9.9C368.9,136.8,363.6,140,361,144.2"/>
			<path id="i" d="M382.9,120.5c-3.2,0-5.8-2.2-5.8-5.6s2.6-5.8,5.8-5.8c3.2,0,5.8,2.4,5.8,5.8C388.6,118.3,386,120.5,382.9,120.5
				 M377.9,127.3h9.9v39.8h-9.9V127.3z"/>
			<path id="p" d="M413.5,167.6c-3.8,0-6.8-0.6-9.3-1.6V181l-9.9,1.4v-55.1h8.4l0.8,5.4c2.8-3.2,6.6-6.2,12.3-6.2
				c8.2,0,15.1,6.2,15.1,19.7C430.8,160.9,422.6,167.6,413.5,167.6 M413.1,135.2c-3.4,0-6.2,2.2-9.1,5.6v17.1
				c2.4,1.2,4.2,1.6,7.6,1.6c5,0,9.1-4.2,9.1-12.9C420.9,139,417.5,135.2,413.1,135.2"/>
			<path id="t" d="M450.7,167.8c-7.8,0-13.1-2.8-13.1-11.9v-20.5H432v-8h5.6v-12.7l9.7-1.4v14.1h8l1.2,8h-9.5v18.9
				c0,3.2,1.4,4.8,5.2,4.8c1.2,0,2.2,0,3-0.2l1.2,8.2C455.3,167.4,453.5,167.8,450.7,167.8"/>
			<path id="_xAE_" d="M465.6,169.4c-3.2,0-5.4-2.2-5.4-5.6c0-3.2,2.2-5.6,5.4-5.6c3.2,0,5.4,2.2,5.4,5.6S468.8,169.4,465.6,169.4
				 M465.6,158.9c-2.6,0-4.6,1.8-4.6,4.8c0,3,2,4.8,4.6,4.8c2.6,0,4.6-1.8,4.6-4.8C470.2,160.7,468.2,158.9,465.6,158.9 M467,166.8
				l-1.6-2.4H465v2.4h-1.4v-6.2h2c1.4,0,2.2,0.6,2.2,1.8c0,0.8-0.4,1.4-1.2,1.6l1.6,2.4L467,166.8z M465.6,161.7H465v1.8h0.6
				c0.6,0,1-0.2,1-0.8C466.6,161.9,466.2,161.7,465.6,161.7"/>
		</g>
	</g>
	<g id="logo-icon">

			<linearGradient id="shape_1_" gradientUnits="userSpaceOnUse" x1="291.6887" y1="91.4872" x2="340.5107" y2="140.3093" gradientTransform="matrix(1.9774 0 0 1.9774 -537.57 -85.1548)">
			<stop  offset="0" style="stop-color:#00ACC8"/>
			<stop  offset="0.1853" style="stop-color:#00A7C2"/>
			<stop  offset="0.4343" style="stop-color:#0098B1"/>
			<stop  offset="0.7182" style="stop-color:#007F95"/>
			<stop  offset="1" style="stop-color:#006072"/>
		</linearGradient>
		<path id="shape" fill="url(#shape_1_)" d="M39.2,95.8v82.7c0,7.6,6,13.9,13.7,13.9h82.9v-82.9c0-7.4-6-13.7-13.7-13.7L39.2,95.8
			L39.2,95.8z"/>
		<g id="squares">
			<rect x="123.7" y="180" fill="#005060" width="12.1" height="12.1"/>
			<rect x="111.6" y="180" fill="#006A7D" width="12.1" height="12.1"/>
			<rect x="99.5" y="180" fill="#006577" width="12.1" height="12.1"/>
			<rect x="87.5" y="180" fill="#005D6F" width="12.1" height="12.1"/>
			<rect x="75.4" y="180" fill="#00798F" width="12.1" height="12.1"/>
			<rect x="63.3" y="180" fill="#007488" width="12.1" height="12.1"/>
			<rect x="51.3" y="180" fill="#006B7F" width="12.1" height="12.1"/>
			<rect x="111.6" y="168.2" fill="#00596A" width="12.1" height="12.1"/>
			<rect x="99.5" y="168.2" fill="#007286" width="12.1" height="12.1"/>
			<rect x="87.5" y="168.2" fill="#006C7F" width="12.1" height="12.1"/>
			<rect x="75.4" y="168.2" fill="#00667A" width="12.1" height="12.1"/>
			<rect x="63.3" y="168.2" fill="#007F95" width="12.1" height="12.1"/>
			<rect x="123.7" y="156.1" fill="#005A6C" width="12.1" height="12.1"/>
			<rect x="99.5" y="156.1" fill="#006F82" width="12.1" height="12.1"/>
			<rect x="75.4" y="156.1" fill="#007F96" width="12.1" height="12.1"/>
			<rect x="39.2" y="156.1" fill="#008CA4" width="12.1" height="12.1"/>
			<rect x="123.7" y="144" fill="#00697C" width="12.1" height="12.1"/>
			<rect x="111.6" y="144" fill="#006F82" width="12.1" height="12.1"/>
			<rect x="99.5" y="144" fill="#007D93" width="12.1" height="12.1"/>
			<rect x="63.3" y="144" fill="#0089A1" width="12.1" height="12.1"/>
			<rect x="123.7" y="132" fill="#00788D" width="12.1" height="12.1"/>
		</g>
		<rect id="pixel" x="123.7" y="168.2" fill="#CFDE00" width="12.1" height="12.1"/>
		<path id="m" fill="#FFFFFF" d="M96.1,168.2l10.5-36.2c0.6-2.4,1.8-5,2.2-6.8c0,2.2,0.2,5,0.4,7.4l2.4,35.6h12.1l-5.2-57.7H102
			L92.9,143c-0.6,2.8-1.2,5.4-1.6,7.2c-0.6-2.4-1-5-1.4-7.4c-1-7-3.2-19.7-5.8-29c-1-4.6-6.8-5.8-10.3-4.2c-2.6,1-4,4.2-4.8,6.8
			c-1.2,4-2.2,8-3.2,12.3c-0.8,3.8-1.8,9.1-2.6,12.9c-0.2,1-0.6,2.8-1.6,2.8c-0.8,0-0.8-4.2-0.8-5.4c0-4.4-0.2-10.7-1-15.1
			c-1-5-2.4-10.9-8.8-10.1c-1.8,0.2-4.8,1.4-4.4,3.2c0.6,2.6,1.4,5.8,1.8,8.6c1.8,10.7,3.2,28.8,4,38c0.2,4,4.6,6,8.8,4.2
			c2-0.8,3.4-3.4,4-5.2c4.2-11.1,6.8-22.9,10.3-34.2c0-0.2,0.4-1.6,0.8-1.6c1.8,0,4.2,26.5,4.8,29.2c0.6,3.8,1.8,10.7,6.2,11.7
			c0.8,0.2,2,0.2,3,0.2C90.7,168.2,96.1,168.2,96.1,168.2z"/>
	</g>
</g>
</svg>
