<?xml version="1.0" encoding="UTF-8"?>
<svg width="112px" height="112px" viewBox="0 0 112 112" version="1.1" xmlns="http://www.w3.org/2000/svg" xmlns:xlink="http://www.w3.org/1999/xlink">
    <!-- Generator: Sketch 40.3 (33839) - http://www.bohemiancoding.com/sketch -->
    <title>myscript-music</title>
    <desc>Created with Sketch.</desc>
    <defs>
        <rect id="path-1" x="0" y="0" width="112" height="112"></rect>
        <mask id="mask-2" maskContentUnits="userSpaceOnUse" maskUnits="objectBoundingBox" x="0" y="0" width="112" height="112" fill="white">
            <use xlink:href="#path-1"></use>
        </mask>
    </defs>
    <g id="MyScript-Technologies" stroke="none" stroke-width="1" fill="none" fill-rule="evenodd">
        <g id="myscript-music">
            <use id="Rectangle-5-Copy-2" stroke="#0065B8" mask="url(#mask-2)" stroke-width="4" xlink:href="#path-1"></use>
            <path d="M61.9812483,78.2382192 C67.7165596,75.7858947 72.3473146,75.0158483 73.3448576,78.1633848 C74.343149,81.3109212 71.3303146,87.1839278 65.5950033,89.6370007 C59.8596921,92.0893252 54.4020166,91.5265702 53.4037252,88.3782854 C52.4061821,85.230749 56.2459371,80.6912921 61.9812483,78.2382192 L61.9812483,78.2382192 Z M43.9154669,64.3167689 C43.2950894,64.1416563 42.8842483,63.4853583 42.9037053,62.7729344 L42.9081954,62.6404775 C42.9081954,62.6404775 42.9224139,62.1061596 42.9478576,61.1707291 C43.0077252,60.2457755 43.0503808,58.921206 43.0129636,57.3167556 C43.0414007,55.7287689 42.8700298,53.8429411 42.8303675,51.8448616 C42.7188642,49.8280735 42.6799503,47.6825702 42.6088576,45.5071331 C42.6320563,43.3376828 42.522798,41.1480272 42.5572219,39.0915768 C42.5834139,37.0291397 42.6343013,35.0954179 42.6350497,33.4408285 C42.5946391,30.1294046 42.568447,27.9210404 42.568447,27.9210404 C42.5624603,27.4533252 42.8842483,27.0686762 43.2868576,27.0619411 C43.6468113,27.0559543 43.948394,27.3545437 44.0135,27.7504179 C44.0135,27.7504179 44.371957,29.9191199 44.9085199,33.1729212 C45.2003742,34.8043119 45.5401225,36.7073517 45.9038179,38.7465901 C46.2106391,40.8022921 46.477798,42.992696 46.6910762,45.2175238 C46.7659106,46.3318086 46.8856457,47.4341199 46.8923808,48.5439146 C46.9283013,49.6492192 46.927553,50.7388086 46.927553,51.7917291 C46.9065993,52.8498881 46.8197914,53.8788616 46.7599238,54.8479675 C46.703798,55.8155768 46.5848113,56.7375371 46.4770497,57.5854113 C46.3041821,59.2796629 46.0385199,60.6820603 45.8372152,61.6586497 C45.6336656,62.6300007 45.5169238,63.1852722 45.5169238,63.1852722 C45.3440563,64.0114444 44.6271424,64.5180735 43.9154669,64.3167689 L43.9154669,64.3167689 Z M44.0187384,67.4987291 C44.9885927,70.5594576 41.8096258,76.3770868 35.8999503,78.904994 C29.9895265,81.432153 24.4121159,81.0003583 23.4415132,77.9388815 C22.4716589,74.878153 26.4753013,70.3484245 32.3857252,67.8205172 C38.2954007,65.2933583 43.0481358,64.4380007 44.0187384,67.4987291 L44.0187384,67.4987291 Z M79.6227185,28.7479609 C79.5710828,28.7314974 79.5164536,28.7150338 79.4633212,28.6985702 C79.5950298,28.6806099 79.6294536,28.709047 79.6227185,28.7479609 L79.6227185,28.7479609 Z M79.5965265,28.7823848 C79.4610762,28.9178351 79.5658444,28.8542258 79.6077517,28.7838815 L79.5965265,28.7823848 Z M78.1948775,35.7434841 L78.1948775,35.7434841 L78.1836523,35.738994 C78.187394,35.7404907 78.1911358,35.7419874 78.1948775,35.7434841 L78.1948775,35.7434841 Z M79.6376854,28.8879013 C79.6174801,28.8796695 79.6361887,28.8886497 79.6526523,28.8953848 C79.6706126,28.9028682 79.6848311,28.908855 79.702043,28.9155901 C79.6309503,28.8774245 79.6376854,28.8879013 79.6376854,28.8879013 L79.6376854,28.8879013 Z M81.6597119,29.8233318 C82.7380762,30.695153 83.2506921,32.3123252 82.8263808,33.839696 C82.3152616,35.6813715 80.6307384,36.705855 79.0420033,36.1655503 C79.0420033,36.1655503 78.8818576,36.1109212 78.5817715,36.008398 C78.4268642,35.9537689 78.2360364,35.8871662 78.0115331,35.8078417 C77.8820695,35.7599477 77.7428775,35.7075636 77.5947053,35.6521861 L77.4293212,35.5833384 C77.3672086,35.5489146 77.329043,35.5601397 76.9226921,35.3131861 L76.9219437,35.3124377 C76.5200828,35.1859675 76.0905331,35.0512656 75.6385331,34.9083318 C75.7260894,35.6566762 75.8211291,36.4656364 75.9221556,37.3277291 C76.0763146,38.5123583 76.2431954,39.7957689 76.4198046,41.1525172 C76.6143742,42.5055238 76.7236325,43.9588086 76.8860232,45.4510073 C77.1621623,48.4428881 77.3529901,51.6472987 77.5819834,54.8524576 C77.8970364,61.2276033 77.8072351,67.624451 77.6777715,72.3899079 C77.6208974,74.7778748 77.5737517,76.7677225 77.5400762,78.1611397 C77.4884404,79.5553053 77.459255,80.3522921 77.459255,80.3522921 L77.4577583,80.3777358 C77.4263278,81.2286033 76.8066987,81.8893914 76.0740695,81.8519742 C75.4050497,81.819047 74.8729768,81.2158815 74.8093675,80.4637954 C74.8093675,80.4637954 74.7420166,79.6683053 74.6230298,78.2756364 C74.5227517,76.8822192 74.3790695,74.8916232 74.2069503,72.5021596 C74.0430629,70.1097026 73.8342748,67.3236166 73.7063079,64.3467026 C73.5731026,61.3690404 73.5139834,58.1818417 73.4945265,55.0066166 C73.4997649,51.8456099 73.4675861,48.6831066 73.5334404,45.7069411 C73.5663675,44.2154907 73.6516788,42.7786695 73.643447,41.4032126 L73.643447,37.5335238 C73.6292285,36.3339278 73.6157583,35.2346099 73.6037848,34.2602656 C71.946202,33.7237026 70.0828245,33.1205371 68.1049503,32.4799543 C65.7723609,31.7563053 63.2848642,30.9847623 60.7966192,30.2132192 C58.3195993,29.4551464 55.7655,28.665643 53.4246788,27.8933517 C51.0569172,27.1532391 48.9136589,26.3255702 47.0555199,25.6647821 C43.3497185,24.3140205 40.9722285,23.0014245 40.9722285,23.0014245 C40.0989106,22.5209874 39.7262351,21.3086695 40.1400695,20.2946629 C40.4573675,19.5148881 41.1533278,19.0801 41.8515331,19.1377225 C41.8515331,19.1377225 44.4759768,19.3644709 48.2715795,20.3223517 C50.1663874,20.8072788 52.3874735,21.3782656 54.7425132,21.9297954 C57.1132682,22.4925503 59.585798,23.1278947 62.1354073,23.7939212 C64.6693013,24.4689278 67.2159172,25.0623649 69.5791887,25.7717954 C71.9469503,26.4625172 74.1568113,27.1075901 76.0508709,27.6598682 C76.9960298,27.9457358 77.8626126,28.2076563 78.6304139,28.439643 C78.9245132,28.5309411 79.1991556,28.6162523 79.4633212,28.6985702 C79.4333874,28.7023119 79.4012086,28.7082987 79.3615464,28.7172788 C79.4431159,28.7359874 79.5261821,28.7561927 79.6122417,28.776398 C79.6174801,28.7666695 79.6212219,28.7569411 79.6227185,28.7479609 C79.654149,28.7576894 79.6885728,28.7689146 79.7200033,28.778643 L80.0163477,28.8759278 L80.1794868,28.9357954 L80.2490828,28.9642325 C80.4062351,29.0315834 80.5633874,29.115398 80.7130563,29.2141795 C80.8065993,29.2755437 80.8964007,29.3443914 80.983957,29.4162325 C81.1815199,29.5022921 81.3663609,29.608557 81.5392285,29.7350272 C81.5803874,29.7559808 81.6215464,29.7851662 81.6597119,29.8233318 L81.6597119,29.8233318 Z" id="Fill-3" fill="#0065B8"></path>
        </g>
    </g>
</svg>