<?xml version="1.0" encoding="UTF-8"?>
<svg width="112px" height="112px" viewBox="0 0 112 112" version="1.1" xmlns="http://www.w3.org/2000/svg" xmlns:xlink="http://www.w3.org/1999/xlink">
    <!-- Generator: Sketch 40.3 (33839) - http://www.bohemiancoding.com/sketch -->
    <title>myscript-math</title>
    <desc>Created with Sketch.</desc>
    <defs>
        <rect id="path-1" x="0" y="0" width="112" height="112"></rect>
        <mask id="mask-2" maskContentUnits="userSpaceOnUse" maskUnits="objectBoundingBox" x="0" y="0" width="112" height="112" fill="white">
            <use xlink:href="#path-1"></use>
        </mask>
    </defs>
    <g id="MyScript-Technologies" stroke="none" stroke-width="1" fill="none" fill-rule="evenodd">
        <g id="myscript-math">
            <use id="Rectangle-5-Copy" stroke="#0065B8" mask="url(#mask-2)" stroke-width="4" xlink:href="#path-1"></use>
            <path d="M33.8007695,22.7606821 C33.8119947,22.7741523 33.8224715,22.8115695 33.8336967,22.8340199 C33.8509086,22.8736821 33.8651272,22.9073576 33.880094,22.9417815 C33.877849,22.9402848 33.8763523,22.9387881 33.8726106,22.936543 C33.7289285,22.6641457 33.7902927,22.7457152 33.8007695,22.7606821 M52.4779483,36.6065497 C52.4779483,36.6065497 51.9398887,36.5115099 50.9984715,36.3446291 C50.0555576,36.1867285 48.7190146,35.8829007 47.0951073,35.6494172 C45.4607232,35.4503576 43.5846238,35.1540132 41.5042265,34.9856358 C39.8002464,34.8217483 38.0334053,34.7386821 36.2635709,34.7356887 C36.2126834,33.486702 36.1543126,32.2526821 36.0742397,31.0747881 C36.0413126,30.2179338 35.9193325,29.3895166 35.8534781,28.6045033 C35.7816371,27.8187417 35.7015642,27.0763841 35.6035311,26.391649 C35.3857629,25.0236755 35.1769748,23.8764636 35.0332927,23.0981854 C35.0175775,23.0061391 35.0026106,22.9193311 34.9883921,22.8370132 C34.981657,22.7943576 34.9764185,22.7636755 34.9696834,22.7449669 C34.9726768,22.7262583 34.9749219,22.7112914 34.9771669,22.6910861 L34.9831536,22.5608742 C34.9464848,22.460596 35.0624781,22.5616225 34.8566834,22.1664967 C34.7923258,22.1275828 34.9375046,22.1447947 34.555849,21.9494768 C34.3627762,21.8619205 34.0192861,21.960702 33.9115245,22.0961523 C33.7835576,22.2286093 33.7678424,22.3056887 33.7723325,22.2869801 L33.7266834,22.3977351 L33.6817828,22.5421656 L33.6331404,22.7068013 C33.6062,22.8025894 33.5770146,22.9051126 33.5470808,23.0121258 C33.3173391,23.8353046 33.0673921,24.9780265 32.8144517,26.3572252 C32.6992066,27.045702 32.6049152,27.7918013 32.521849,28.5813046 C32.4455179,29.3700596 32.315306,30.2014702 32.2763921,31.0613179 C32.1843457,32.289351 32.1199881,33.575755 32.067604,34.8778742 C31.9725642,34.8838609 31.8745311,34.8898477 31.7817364,34.8950861 C30.7003788,34.9512119 29.6377298,35.0297881 28.6087563,35.1472781 C26.5575444,35.3500795 24.6380411,35.6756093 22.9961735,35.9794371 C21.3505642,36.2802715 20.043955,36.6409735 19.1092728,36.9156159 C18.1828225,37.2082185 17.6597298,37.443947 17.6597298,37.443947 C17.5010808,37.5172848 17.3723656,37.6609669 17.3282132,37.8443113 C17.2503854,38.1623576 17.4457033,38.482649 17.7630013,38.5597285 C17.7630013,38.5597285 18.3212662,38.6959272 19.2851338,38.8134172 C19.7663192,38.8605629 20.3515245,38.9249205 21.0182993,38.9533576 C21.6790874,38.9990066 22.4244384,39.0513907 23.2386371,39.1082649 C24.0408623,39.1486755 24.9104384,39.1935762 25.8301536,39.2407219 C26.7551073,39.293106 27.7302,39.3896424 28.7344781,39.4076026 C29.7896437,39.4532517 30.8829748,39.5003974 31.9927695,39.5482914 C32.0286901,42.122596 32.1746172,44.5659404 32.341498,46.5355828 C32.4627298,47.9102914 32.5293325,49.056755 32.637094,49.8604768 C32.6864848,50.2623377 32.7545841,50.5788874 32.8062199,50.797404 C32.8675841,51.0406159 32.9005113,51.1708278 32.9005113,51.1708278 C32.9873192,51.5090795 33.2080808,51.8173974 33.5381007,52.0014901 C34.1749417,52.357702 34.9801603,52.1287086 35.3356238,51.4911192 L35.5885642,51.0376225 C35.5885642,51.0376225 35.6229881,50.9762583 35.6678887,50.7525033 C35.7135377,50.5422185 35.7741536,50.2286623 35.8153126,49.8290464 C35.9073589,49.0305629 35.957498,47.8863444 36.0615179,46.5138808 C36.2022066,44.5921325 36.3241868,42.2191325 36.3518755,39.7151722 C38.0708225,39.7518411 39.7598358,39.7466026 41.3328556,39.7458543 C43.3511404,39.7136755 45.2347232,39.6837417 46.8496503,39.658298 C48.4750543,39.6186358 49.8452728,39.5041391 50.7971669,39.4659735 C51.7505576,39.4225695 52.2961007,39.3978742 52.2961007,39.3978742 C52.9389285,39.3686887 53.4994384,38.8979801 53.6169285,38.2379404 C53.7523788,37.4723841 53.2420079,36.742 52.4779483,36.6065497 Z M40.7210093,73.6317106 C39.7302013,72.7127437 38.6817709,71.7406444 37.6273536,70.7625583 C38.2589563,70.2499424 38.8875656,69.7500483 39.5116848,69.2838298 C40.1709762,68.7899225 40.7883603,68.2675781 41.4109828,67.850002 C42.0148967,67.395757 42.5858834,66.9662073 43.1127179,66.5688364 C43.6238371,66.1512603 44.1267245,65.7905583 44.5749828,65.4672735 C45.018751,65.140247 45.3240755,64.7174325 45.6002146,64.4106113 C46.1494993,63.7917305 46.4533272,63.4220483 46.4533272,63.4220483 C46.5131947,63.3487106 46.5431285,63.2491808 46.5251682,63.1481543 C46.4922411,62.9655583 46.3171285,62.8435781 46.1337841,62.875757 C46.1337841,62.875757 45.6630755,62.9603199 44.8548636,63.1361808 C44.4522543,63.2259821 43.9336517,63.2858497 43.4322609,63.512598 C42.9293735,63.7333596 42.3711086,64.0042603 41.7582146,64.3327834 C41.1513073,64.6657967 40.4950093,65.0264987 39.7997974,65.4081543 C39.1060821,65.8002868 38.4363139,66.2807238 37.7081748,66.7424523 C36.9905126,67.2161543 36.230943,67.6823728 35.5192675,68.2421344 C35.3651086,68.3573795 35.2064596,68.4756179 35.0515523,68.5916113 C34.3398768,68.0123927 33.6386781,67.441406 32.9621748,66.8906245 C31.684751,65.8234854 30.4365126,65.0564325 29.3461748,64.3559821 C28.2633205,63.6637636 27.3548305,63.0950219 26.6483934,62.7874523 C26.2974199,62.632545 26.0362477,62.4903596 25.7556185,62.5277768 C25.6164265,62.5449887 25.5251285,62.5382536 25.4226053,62.586896 C25.313347,62.6452669 25.200347,62.7492868 25.2055854,62.7418033 C24.9593801,62.9640616 24.7408636,63.2416974 24.5822146,63.5567503 C24.5882013,63.5492669 24.517857,63.6854656 24.4909166,63.805949 C24.4707113,63.916704 24.5013934,64.0035119 24.5208503,64.1419556 C24.5590159,64.4218364 24.7648106,64.6358629 25.0080225,64.9329556 C25.4907046,65.5316311 26.2809563,66.2560285 27.2358437,67.1151278 C27.7162808,67.5409358 28.2199166,68.0251146 28.7894066,68.4883397 C29.3708702,68.9493199 29.9164132,69.477651 30.4844066,70.0059821 C30.9012344,70.3846444 31.3367709,70.7805185 31.7700623,71.174896 C30.8862675,71.9239887 30.0294132,72.6835583 29.2556252,73.4648298 C28.6427311,74.0769755 28.0088834,74.6262603 27.4835457,75.2249358 C26.9544662,75.8191212 26.4538238,76.3811278 25.9928437,76.8997305 C25.0551682,77.9227172 24.4183272,78.9060417 23.9296583,79.5496179 C23.4589497,80.2081609 23.190294,80.5845781 23.190294,80.5845781 C22.7420358,81.210194 22.822857,82.0872536 23.4058172,82.6178298 C24.0344265,83.1903132 25.0065258,83.1439159 25.5782609,82.5153066 L25.650102,82.4359821 C25.650102,82.4359821 25.9449497,82.111949 26.4598106,81.5454523 C26.712751,81.2588364 27.0188238,80.9116046 27.3705457,80.5127371 C27.7050556,80.1011477 28.1188901,79.6671079 28.5738834,79.195651 C29.4689033,78.2400152 30.5046119,77.1219887 31.6967245,75.9957305 C32.5026914,75.1613265 33.4268967,74.3710748 34.3503536,73.5546311 C35.4257245,74.6681675 36.498102,75.7787106 37.5068702,76.8233993 C38.6129232,77.9234656 39.5558371,79.0908828 40.4276583,80.0053596 C42.1278967,81.8874457 43.2990556,83.1064987 43.2990556,83.1064987 C44.229996,84.0718629 45.6892675,84.1272404 46.6411616,83.2651477 C47.6117642,82.385843 47.6865987,80.8854126 46.8080424,79.9140616 C46.8080424,79.9140616 45.6503536,78.6343927 43.8558238,76.7687702 C42.9548172,75.8340881 41.9505391,74.7265384 40.7210093,73.6317106 Z M64.5214285,38.5565106 C64.5214285,38.5565106 64.9472364,38.7570669 65.6925874,38.9718417 C66.4379384,39.1821265 67.5035808,39.4043848 68.7825013,39.6281397 C70.0614219,39.8257026 71.5528722,40.0936099 73.1528325,40.232802 C74.7520444,40.3839675 76.4582695,40.5291464 78.165243,40.5920073 C81.5784417,40.6945305 84.9946338,40.3929477 87.5569649,40.1841596 C88.8381305,40.0561927 89.9060179,39.8713517 90.6536139,39.7860404 C91.4012099,39.6932457 91.8285146,39.6401132 91.8285146,39.6401132 C92.4369185,39.5615371 92.9502828,39.083345 93.0378391,38.4457556 C93.1426073,37.681696 92.6090377,36.977504 91.8464748,36.8727358 C91.8464748,36.8727358 91.4199185,36.8121199 90.6738192,36.7051066 C89.9277199,36.6063252 88.8620775,36.4012788 87.5824086,36.2501132 C85.0238192,35.9926828 81.6113689,35.6274907 78.1974219,35.667153 C76.4897,35.6978351 74.7819781,35.8115834 73.1805212,35.9328152 C71.5798126,36.0420735 70.0846205,36.2815437 68.8027066,36.4551596 C67.5215411,36.6557159 66.4529053,36.8585172 65.7045609,37.0545834 C64.9569649,37.2551397 64.5289119,37.4474642 64.5289119,37.4474642 C64.400945,37.5058351 64.2894417,37.609855 64.2258325,37.746802 C64.0843954,38.0521265 64.216104,38.4143252 64.5214285,38.5565106 Z M64.2931834,68.5956523 C64.2931834,68.5956523 64.7362033,68.6368113 65.5122364,68.707904 C66.2860245,68.7715132 67.3905808,68.9264205 68.6986868,69.0162219 C69.3587265,69.0715993 70.0434616,69.0603742 70.8165013,69.138202 C71.5835543,69.1995662 72.3917662,69.2646722 73.2276669,69.3312748 C74.8994682,69.4495132 76.6812762,69.4899238 78.4638325,69.477202 C80.2531238,69.4472682 82.0536404,69.3537252 83.7359185,69.2399768 C85.4196934,69.1411954 86.9927132,68.9114536 88.3389848,68.7430762 C89.6860046,68.5485066 90.8085212,68.3501954 91.5950311,68.1571225 C92.3815411,67.9588113 92.8320444,67.7672351 92.8320444,67.7672351 C92.965998,67.7081159 93.0857331,67.5988576 93.1500907,67.4544272 C93.2870377,67.1468576 93.1493424,66.7861556 92.8417728,66.6484603 C92.8417728,66.6484603 92.3950113,66.4441623 91.612243,66.2234007 C90.8294748,66.0063808 89.7107,65.7766391 88.3681702,65.5431556 C87.0241437,65.3366126 85.4593556,65.0544868 83.7800709,64.9033212 C82.1000377,64.7416788 80.3144881,64.5755464 78.5169649,64.5111887 C74.888243,64.459553 71.3380974,64.6825596 68.555753,65.0514934 C67.1750576,65.2453146 66.0390709,65.4877781 65.2450775,65.6120033 C64.4525808,65.7444603 63.9998325,65.820043 63.9998325,65.820043 C63.3921768,65.9218179 62.9035079,66.4217119 62.8443887,67.0652881 C62.7740444,67.830096 63.3367993,68.508096 64.1016073,68.5784404 L64.2931834,68.5956523 Z M93.9092861,79.6330583 C93.9092861,79.6330583 93.4625245,79.4616874 92.6775113,79.2409258 C91.8917497,79.0328861 90.7692331,78.7342967 89.4199682,78.441694 C88.7449616,78.3054954 88.0123325,78.1909987 87.2370477,78.0869788 C86.4610146,77.989694 85.6453192,77.8288 84.7966967,77.7711775 C83.102445,77.5960649 81.2929483,77.4763298 79.4827033,77.3663232 C77.6926636,77.2510781 75.8023457,77.307204 74.0736702,77.3782967 C72.3360146,77.4344225 70.718094,77.5653828 69.3366503,77.6911046 C67.9552066,77.8235616 66.806498,77.8931576 66.0080146,78.009151 C65.2087828,78.1251444 64.7620212,78.2920252 64.7620212,78.2920252 C64.3392066,78.4521709 63.979253,78.7919192 63.8146172,79.2514026 C63.5160278,80.0835616 63.9485709,81.0010318 64.7799815,81.2996212 L64.9999947,81.3781974 C64.9999947,81.3781974 65.4602265,81.5435815 66.2474848,81.6573298 C67.0354914,81.7718265 68.1527695,81.8384291 69.4915576,81.9671444 C70.8303457,82.0898728 72.3854053,82.2170914 74.0474781,82.2687272 C74.8788887,82.3068927 75.7364914,82.3263497 76.6090609,82.3353298 C77.4726503,82.3375748 78.3803921,82.3517934 79.2903788,82.3323364 C81.1058623,82.2934225 82.922094,82.2447801 84.6268225,82.1355219 C85.4784384,82.1115748 86.3053589,81.9821113 87.0881272,81.9155086 C87.870147,81.8421709 88.6110079,81.7561113 89.2949947,81.646853 C90.6652132,81.4066344 91.8086834,81.1521974 92.6094119,80.9755881 C93.4108887,80.7855086 93.8703722,80.632098 93.8703722,80.632098 L93.8898291,80.6253629 C94.0335113,80.5767205 94.154743,80.4667139 94.2131139,80.3148 C94.3171338,80.0424026 94.1809351,79.7370781 93.9092861,79.6330583 Z" id="Fill-13" fill="#0065B8"></path>
        </g>
    </g>
</svg>